<svg width="300" height="300" viewBox="0 0 300 300" fill="none" xmlns="http://www.w3.org/2000/svg">
<path d="M282.455 251.183C266.451 268.125 247.433 280.513 225.402 288.281C203.371 296.116 180.134 300 155.692 300C132.321 300 111.027 296.317 91.875 288.884C72.7232 281.518 56.317 271.205 42.7902 258.013C29.1964 244.821 18.683 229.018 11.183 210.603C3.68304 192.188 0 172.098 0 150.335C0 128.839 4.08482 108.951 12.2545 90.6696C20.4241 72.3884 31.5402 56.5179 45.6696 43.058C59.7991 29.5982 76.2723 19.0848 95.2232 11.3839C114.04 3.81696 134.263 0 155.692 0C174.174 0 192.121 2.67857 209.464 8.03571C226.875 13.3929 242.277 21.4955 255.737 32.2098C269.196 42.9911 279.911 56.3839 287.946 72.5223C295.982 88.6607 300 107.612 300 129.375C300 145.513 297.79 159.777 293.304 172.098C288.817 184.487 282.857 194.799 275.357 203.17C267.857 211.54 259.353 217.768 249.71 221.92C240.067 226.071 229.955 228.147 219.375 228.147C208.527 228.147 199.821 225.603 193.259 220.513C186.763 215.424 183.482 208.929 183.482 201.161H181.473C177.388 207.589 171.161 213.75 162.723 219.509C154.286 225.268 143.973 228.214 131.719 228.214C113.237 228.214 98.9732 222.188 88.9286 210.067C78.8839 197.946 73.8616 182.277 73.8616 162.857C73.8616 151.54 75.7366 140.424 79.5536 129.375C83.3705 118.326 88.7946 108.549 95.8259 99.9107C102.857 91.3393 111.295 84.375 121.071 79.1518C130.848 73.9286 141.696 71.317 153.683 71.317C163.996 71.317 172.701 73.4598 179.799 77.7455C186.83 82.0313 191.451 87.3214 193.661 93.4821H194.062L197.344 77.3438H233.638L217.634 153.616C217.098 157.366 216.362 161.518 215.424 166.138C214.487 170.692 214.018 174.978 214.018 179.062C214.018 183.616 214.888 187.433 216.696 190.58C218.438 193.661 221.92 195.201 227.076 195.201C237.656 195.201 246.429 189.576 253.393 178.259C260.29 166.942 263.772 151.808 263.772 132.723C263.772 116.585 261.027 102.254 255.603 89.7991C250.179 77.2768 242.612 66.8304 232.969 58.3259C223.326 49.8884 211.808 43.4598 198.549 39.1741C185.223 34.8884 170.692 32.7455 154.955 32.7455C137.812 32.7455 122.143 35.7589 107.879 41.7857C93.6161 47.8125 81.4286 56.183 71.3839 66.7634C61.3393 77.4107 53.5045 89.8661 47.9464 104.263C42.3214 118.594 39.5089 134.129 39.5089 150.804C39.5089 168.549 42.4554 184.554 48.2812 198.817C54.1071 213.08 62.3437 225.201 72.9241 235.312C83.5045 245.424 96.1607 253.125 110.826 258.482C125.491 263.839 141.696 266.518 159.308 266.518C181.339 266.518 200.29 263.036 216.161 256.004C232.031 249.04 246.629 239.33 259.955 226.942L282.455 251.183V251.183ZM154.888 104.464C148.393 104.464 142.634 106.339 137.746 110.089C132.857 113.839 128.705 118.594 125.29 124.42C121.875 130.179 119.33 136.607 117.522 143.571C115.781 150.536 114.844 157.299 114.844 163.728C114.844 166.942 115.179 170.357 115.848 174.04C116.518 177.656 117.857 181.004 119.933 184.152C121.942 187.232 124.621 189.777 127.902 191.786C131.183 193.795 135.536 194.799 140.96 194.799C148.326 194.799 154.554 192.991 159.71 189.375C164.866 185.759 169.085 181.205 172.366 175.647C175.647 170.156 177.991 164.129 179.531 157.701C181.004 151.272 181.741 145.313 181.741 139.955C181.741 135.67 181.339 131.451 180.536 127.232C179.732 123.08 178.326 119.33 176.25 115.915C174.241 112.567 171.429 109.821 167.879 107.679C164.397 105.536 160.045 104.464 154.888 104.464V104.464Z" fill="black"/>
</svg>
