<svg width="300" height="300" viewBox="0 0 300 300" fill="none" xmlns="http://www.w3.org/2000/svg">
<path d="M278.04 247.81C262.569 264.187 244.185 276.163 222.888 283.672C201.592 291.246 179.129 295 155.502 295C132.911 295 112.326 291.44 93.8125 284.254C75.2991 277.134 59.4397 267.165 46.3638 254.413C33.2232 241.661 23.0603 226.384 15.8103 208.583C8.56027 190.781 5 171.362 5 150.324C5 129.545 8.94866 110.319 16.846 92.6473C24.7433 74.9754 35.4888 59.6339 49.1473 46.6228C62.8058 33.6116 78.7299 23.4487 97.0491 16.0045C115.239 8.68973 134.788 5 155.502 5C173.368 5 190.717 7.58929 207.482 12.7679C224.312 17.9464 239.201 25.779 252.212 36.1362C265.223 46.558 275.58 59.5045 283.348 75.1049C291.116 90.7054 295 109.025 295 130.062C295 145.663 292.864 159.451 288.527 171.362C284.19 183.337 278.429 193.306 271.179 201.397C263.929 209.489 255.708 215.509 246.386 219.522C237.065 223.536 227.29 225.542 217.062 225.542C206.576 225.542 198.161 223.083 191.817 218.163C185.538 213.243 182.366 206.964 182.366 199.455H180.424C176.475 205.67 170.455 211.625 162.299 217.192C154.143 222.759 144.174 225.607 132.328 225.607C114.462 225.607 100.674 219.781 90.9643 208.065C81.2545 196.348 76.3996 181.201 76.3996 162.429C76.3996 151.489 78.2121 140.743 81.9018 130.062C85.5915 119.382 90.8348 109.931 97.6317 101.58C104.429 93.2946 112.585 86.5625 122.036 81.5134C131.487 76.4643 141.973 73.9397 153.56 73.9397C163.529 73.9397 171.944 76.0112 178.806 80.154C185.603 84.2969 190.069 89.4107 192.205 95.3661H192.594L195.766 79.7656H230.85L215.379 153.496C214.862 157.121 214.15 161.134 213.243 165.6C212.337 170.002 211.884 174.145 211.884 178.094C211.884 182.496 212.725 186.185 214.473 189.228C216.156 192.205 219.522 193.694 224.507 193.694C234.734 193.694 243.214 188.257 249.946 177.317C256.614 166.377 259.98 151.748 259.98 133.299C259.98 117.699 257.326 103.846 252.083 91.8058C246.839 79.7009 239.525 69.6027 230.203 61.3817C220.882 53.2254 209.748 47.0112 196.931 42.8683C184.049 38.7254 170.002 36.654 154.79 36.654C138.219 36.654 123.071 39.567 109.283 45.3929C95.4955 51.2187 83.7143 59.3103 74.0045 69.5379C64.2946 79.8304 56.721 91.8705 51.3482 105.788C45.9107 119.641 43.192 134.658 43.192 150.777C43.192 167.931 46.0402 183.402 51.6719 197.19C57.3036 210.978 65.2656 222.694 75.4933 232.469C85.721 242.243 97.9554 249.687 112.132 254.866C126.308 260.045 141.973 262.634 158.998 262.634C180.295 262.634 198.614 259.268 213.955 252.471C229.297 245.739 243.408 236.353 256.29 224.377L278.04 247.81V247.81ZM154.725 105.982C148.446 105.982 142.879 107.795 138.154 111.42C133.429 115.045 129.415 119.641 126.114 125.272C122.812 130.839 120.353 137.054 118.605 143.786C116.922 150.518 116.016 157.056 116.016 163.27C116.016 166.377 116.339 169.679 116.987 173.239C117.634 176.734 118.929 179.971 120.935 183.013C122.877 185.991 125.467 188.451 128.638 190.393C131.81 192.335 136.018 193.306 141.261 193.306C148.382 193.306 154.402 191.558 159.386 188.062C164.371 184.567 168.449 180.165 171.621 174.792C174.792 169.484 177.058 163.658 178.547 157.444C179.971 151.23 180.683 145.469 180.683 140.29C180.683 136.147 180.295 132.069 179.518 127.991C178.741 123.978 177.382 120.353 175.375 117.051C173.433 113.815 170.714 111.161 167.283 109.089C163.917 107.018 159.71 105.982 154.725 105.982V105.982Z" fill="black"/>
</svg>
