<svg width="300" height="300" viewBox="0 0 300 300" fill="none" xmlns="http://www.w3.org/2000/svg">
<path fill-rule="evenodd" clip-rule="evenodd" d="M109.207 0C109.207 0 177.458 82.5601 202.722 132.85C215.448 158.18 257.309 234.285 280.365 299.618C284.769 312.083 115.688 15.0202 61.2831 93.8448C61.2831 93.8448 94.0475 17.2385 109.207 0Z" fill="#1B75BB"/>
<path fill-rule="evenodd" clip-rule="evenodd" d="M20 264.342C20 264.342 29.0741 211.275 92.3953 211.765C131.273 212.073 190.666 231.273 280.779 299.166C280.779 299.166 242.149 247.212 191.039 204.979C172.704 189.827 149.127 175.281 125.68 164.384C99.0919 152.032 63.1291 146.312 40.5202 161.236C40.3673 161.333 40.6051 161.121 40.3333 161.766C34.2651 175.993 21.7265 249.749 20 264.342Z" fill="#76B3E2"/>
</svg>
