<svg width="800" height="800" viewBox="0 0 800 800" fill="none" xmlns="http://www.w3.org/2000/svg">
<path d="M734.274 600C739.656 590.337 743 579.451 743 569.674V230.323C743 220.547 739.659 209.662 734.274 200L400 400.001L734.274 600Z" fill="#00599C"/>
<path d="M429.679 792.685L713.04 623.435C721.202 618.558 728.622 610.139 734 600.501L399.999 401L66 600.501C71.3784 610.139 78.7995 618.561 86.9599 623.435L370.32 792.685C386.642 802.438 413.357 802.438 429.679 792.685Z" fill="#004482"/>
<path d="M734 199.999C728.62 190.334 721.194 181.894 713.031 177.006L429.553 7.332C413.225 -2.444 386.498 -2.444 370.17 7.332L86.6924 177.006C70.3605 186.78 57 210.774 57 230.323V569.674C57 579.449 60.3412 590.337 65.7238 600L399.861 400L734 199.999Z" fill="#659AD2"/>
<path d="M401.049 628C274.201 628 171 525.719 171 400C171 274.281 274.201 172 401.049 172C481.389 172 556.415 214.057 597.957 282.061L499.438 340.905C478.624 306.976 441.154 286 401.049 286C337.622 286 286.026 337.14 286.026 400C286.026 462.86 337.622 514 401.049 514C441.048 514 478.421 493.141 499.272 459.371L598 517.873C556.466 585.917 481.415 628 401.049 628Z" fill="white"/>
<path d="M600 385.667H571.33V357H542.67V385.667H514V414.33H542.67V443H571.33V414.33H600V385.667Z" fill="white"/>
<path d="M715 385.667H686.33V357H657.67V385.667H629V414.33H657.67V443H686.33V414.33H715V385.667Z" fill="white"/>
</svg>
