<svg width="300" height="300" viewBox="0 0 300 300" fill="none" xmlns="http://www.w3.org/2000/svg">
<path d="M275.167 69.1094L157.777 1.69742C155.833 0.484979 153.16 0 150.243 0C147.327 0 144.653 0.727468 142.709 1.69742L26.0482 69.3519C21.9165 71.7768 19 77.8391 19 82.4464V217.513C19 220.18 19.4861 223.333 21.4304 226L281 75.6567C279.542 72.7468 277.354 70.5644 275.167 69.1094V69.1094Z" fill="#9B4F96"/>
<path d="M21 225.811C22.2127 227.757 23.9104 229.459 25.6082 230.432L142.511 298.297C144.451 299.514 147.119 300 150.03 300C152.94 300 155.608 299.27 157.549 298.297L273.966 230.432C278.09 228 281 221.919 281 217.297V81.8108C281 79.6216 280.757 77.1892 279.545 75L21 225.811V225.811Z" fill="#68217A"/>
<path d="M201.619 179.408C191.421 197.392 171.998 209.544 149.904 209.544C117.126 209.544 90.4191 182.81 90.4191 150C90.4191 117.19 117.126 90.4557 149.904 90.4557C171.998 90.4557 191.421 102.608 201.619 120.835L233.182 102.608C216.672 73.6861 185.594 54 149.904 54C96.9745 54 54 97.0177 54 150C54 202.982 96.9745 246 149.904 246C185.351 246 216.429 226.557 232.939 197.878L201.619 179.408V179.408ZM230.026 155.347L232.211 144.896H222.013V133.473H234.396L237.309 118.405H249.206L246.293 133.23H255.519L258.432 118.405H270.086L267.173 133.23H273V144.653H264.988L262.803 155.104H273V166.527H260.618L257.704 181.109H245.807L248.721 166.527H239.494L236.581 181.109H224.927L227.84 166.527H222.013V155.104H230.026V155.347ZM241.68 155.347H250.906L253.091 144.896H243.865L241.68 155.347Z" fill="white"/>
</svg>
