<svg width="300" height="300" viewBox="0 0 300 300" fill="none" xmlns="http://www.w3.org/2000/svg">
<path d="M44.0953 267.476L20.5312 3.16882H279.469L255.881 267.436L149.843 296.834L44.0953 267.476V267.476Z" fill="#1572B6"/>
<path d="M150.002 274.364L235.688 250.608L255.846 24.7781H150.002V274.364Z" fill="#33A9DC"/>
<path d="M150.002 120.537H192.898L195.86 87.3422H150.002V54.9258H231.288L230.51 63.6235L222.541 152.953H150.002V120.537V120.537Z" fill="white"/>
<path d="M150.194 204.724L150.052 204.766L113.951 195.019L111.642 169.165H79.1062L83.646 220.064L150.047 238.493L150.194 238.451V204.724V204.724Z" fill="#EBEBEB"/>
<path d="M190.141 151.582L186.237 194.993L150.082 204.752V238.479L216.537 220.062L217.024 214.584L222.663 151.582H190.141Z" fill="white"/>
<path d="M150.113 54.9258V87.3422H71.8127L71.1635 80.0579L69.6869 63.6235L68.9111 54.9258H150.113V54.9258ZM150.003 120.541V152.958H114.356L113.707 145.674L112.228 129.239L111.455 120.541H150.003V120.541Z" fill="#EBEBEB"/>
</svg>
