<svg width="300" height="300" viewBox="0 0 300 300" fill="none" xmlns="http://www.w3.org/2000/svg">
<path d="M149.643 199.806C112.285 199.806 77.0473 195.411 50.4225 187.429C29.2855 181.093 4.08813 169.456 4.08813 150C4.08813 145.131 8.03638 141.184 12.9043 141.184C17.7737 141.184 21.7205 145.131 21.7205 150C21.7205 155.017 32.2872 163.585 55.4865 170.54C80.5132 178.042 113.953 182.174 149.643 182.174C183.979 182.174 216.509 178.308 241.242 171.286C245.925 169.956 250.801 172.675 252.13 177.359C253.461 182.043 250.742 186.918 246.059 188.247C219.803 195.702 185.561 199.806 149.643 199.806Z" fill="#50A0F9"/>
<path d="M249.129 12.416C222.42 4.4095 187.089 0 149.644 0C112.198 0 76.8669 4.4095 50.1567 12.416C28.72 18.8427 3.16363 30.7064 3.16363 50.7312C3.16363 51.258 3.19114 51.7757 3.22711 52.2913C3.08111 52.9606 3 53.6539 3 54.367V249.268C3 250.083 3.11003 250.87 3.29904 251.626C5.21392 270.229 29.5769 281.415 50.1574 287.584C76.8662 295.591 112.199 300 149.644 300C187.09 300 222.421 295.591 249.13 287.584C270.568 281.158 296.123 269.294 296.123 249.27V50.7312C296.122 30.7064 270.567 18.8427 249.129 12.416ZM243.534 268.923C218.59 276.401 185.245 280.518 149.644 280.518C114.04 280.518 80.6953 276.4 55.7511 268.923C31.4622 261.642 22.6453 253.18 22.6453 249.27C22.6453 248.673 22.5832 248.092 22.4817 247.525V77.4597C30.8831 82.4807 40.9033 86.271 50.1574 89.0456C76.8662 97.0521 112.199 101.462 149.644 101.462C149.646 101.462 149.646 101.462 149.648 101.462C184.332 101.462 217.722 97.6051 243.659 90.6022C248.854 89.2001 251.927 83.8532 250.525 78.6594C249.124 73.4656 243.778 70.3913 238.581 71.7941C214.25 78.3625 182.665 81.98 149.644 81.98C114.04 81.98 80.6953 77.8617 55.7511 70.3849C31.4622 63.1034 22.6453 54.642 22.6453 50.7312C22.6453 46.8203 31.4629 38.3589 55.7511 31.0774C80.6953 23.5999 114.04 19.4817 149.644 19.4817C185.246 19.4817 218.59 23.5999 243.534 31.0774C267.824 38.3589 276.64 46.8203 276.64 50.7312V249.27C276.64 253.18 267.824 261.642 243.534 268.923Z" fill="#004799"/>
<path d="M237.047 146.398C243.733 146.398 249.154 140.978 249.154 134.291C249.154 127.604 243.733 122.184 237.047 122.184C230.36 122.184 224.939 127.604 224.939 134.291C224.939 140.978 230.36 146.398 237.047 146.398Z" fill="#F9B719"/>
<path d="M237.047 241.188C243.733 241.188 249.154 235.767 249.154 229.08C249.154 222.394 243.733 216.973 237.047 216.973C230.36 216.973 224.939 222.394 224.939 229.08C224.939 235.767 230.36 241.188 237.047 241.188Z" fill="#F9B719"/>
</svg>
