<svg width="300" height="300" viewBox="0 0 300 300" fill="none" xmlns="http://www.w3.org/2000/svg">
<path d="M105 120H120C123.978 120 127.794 118.42 130.607 115.607C133.42 112.794 135 108.978 135 105C135 101.022 133.42 97.2064 130.607 94.3934C127.794 91.5804 123.978 90 120 90H105C101.022 90 97.2064 91.5804 94.3934 94.3934C91.5804 97.2064 90 101.022 90 105C90 108.978 91.5804 112.794 94.3934 115.607C97.2064 118.42 101.022 120 105 120V120ZM105 150C101.022 150 97.2064 151.58 94.3934 154.393C91.5804 157.206 90 161.022 90 165C90 168.978 91.5804 172.794 94.3934 175.607C97.2064 178.42 101.022 180 105 180H195C198.978 180 202.794 178.42 205.607 175.607C208.42 172.794 210 168.978 210 165C210 161.022 208.42 157.206 205.607 154.393C202.794 151.58 198.978 150 195 150H105ZM270 104.1C269.844 102.722 269.542 101.364 269.1 100.05V98.7C268.379 97.1577 267.417 95.74 266.25 94.5V94.5L176.25 4.5C175.01 3.33324 173.592 2.37121 172.05 1.65C171.602 1.5864 171.148 1.5864 170.7 1.65C169.176 0.776119 167.493 0.215163 165.75 0H75C63.0653 0 51.6193 4.74106 43.1802 13.1802C34.7411 21.6193 30 33.0653 30 45V255C30 266.935 34.7411 278.381 43.1802 286.82C51.6193 295.259 63.0653 300 75 300H225C236.935 300 248.381 295.259 256.82 286.82C265.259 278.381 270 266.935 270 255V105C270 105 270 105 270 104.1ZM180 51.15L218.85 90H195C191.022 90 187.206 88.4196 184.393 85.6066C181.58 82.7936 180 78.9782 180 75V51.15ZM240 255C240 258.978 238.42 262.794 235.607 265.607C232.794 268.42 228.978 270 225 270H75C71.0218 270 67.2064 268.42 64.3934 265.607C61.5804 262.794 60 258.978 60 255V45C60 41.0218 61.5804 37.2064 64.3934 34.3934C67.2064 31.5804 71.0218 30 75 30H150V75C150 86.9347 154.741 98.3807 163.18 106.82C171.619 115.259 183.065 120 195 120H240V255ZM195 210H105C101.022 210 97.2064 211.58 94.3934 214.393C91.5804 217.206 90 221.022 90 225C90 228.978 91.5804 232.794 94.3934 235.607C97.2064 238.42 101.022 240 105 240H195C198.978 240 202.794 238.42 205.607 235.607C208.42 232.794 210 228.978 210 225C210 221.022 208.42 217.206 205.607 214.393C202.794 211.58 198.978 210 195 210Z" fill="black"/>
</svg>
