<svg width="300" height="300" viewBox="0 0 300 300" fill="none" xmlns="http://www.w3.org/2000/svg">
<g clip-path="url(#clip0_214_2)">
<path d="M150 0C232.852 0 300 67.1484 300 150C300 232.852 232.852 300 150 300C67.1484 300 0 232.852 0 150C0 67.1484 67.1484 0 150 0Z" fill="#03D47C"/>
<path d="M191.367 115.43V90.9961H108.633V208.945H191.367V184.57H139.043V161.953H181.172V136.934H139.043V115.43H191.367Z" fill="#002E22"/>
<path d="M150.176 52.0898C171.094 52.0898 190.313 58.5938 206.309 69.668C210.352 72.4805 215.918 72.2461 219.375 68.7891C223.301 64.8633 223.066 58.418 218.555 55.1367C199.277 41.25 175.664 33.0469 150.176 33.0469C85.5469 33.0469 32.9883 85.6055 32.9883 150.234C32.9883 175.723 41.1914 199.395 55.0781 218.613C58.3008 223.125 64.8047 223.359 68.7305 219.434C72.2461 215.918 72.4219 210.41 69.6094 206.367C58.5352 190.43 52.0313 171.152 52.0313 150.234C52.0898 95.9766 95.9766 52.0898 150.176 52.0898Z" fill="#002E22"/>
<path d="M246.855 84.0235C243.633 79.336 237.012 79.043 233.027 83.086C229.57 86.543 229.277 91.9922 231.973 96.0938C242.227 111.563 248.262 130.254 248.262 150.234C248.262 170.273 241.992 189.551 231.328 205.371C228.574 209.414 228.809 214.922 232.324 218.438C236.309 222.422 242.812 222.129 246.035 217.559C259.453 198.516 267.363 175.313 267.363 150.293C267.363 125.273 259.805 102.773 246.855 84.0235Z" fill="#002E22"/>
<path d="M150.176 248.32C130.195 248.32 111.504 242.227 96.0352 232.031C91.9336 229.336 86.4844 229.629 83.0273 233.086C79.043 237.07 79.3359 243.691 83.9648 246.914C102.832 259.863 125.625 267.422 150.176 267.422C174.844 267.422 198.34 259.512 217.441 246.094C222.012 242.871 222.305 236.309 218.32 232.383C214.863 228.926 209.355 228.691 205.254 231.445C189.609 242.051 170.625 248.32 150.176 248.32Z" fill="#002E22"/>
</g>
<defs>
<clipPath id="clip0_214_2">
<rect width="300" height="300" fill="white"/>
</clipPath>
</defs>
</svg>
