<svg width="300" height="300" viewBox="0 0 300 300" fill="none" xmlns="http://www.w3.org/2000/svg">
<g clip-path="url(#clip0_6_53)">
<path d="M298 231.315C287.27 234.038 280.635 231.432 274.681 222.511C261.316 202.531 246.563 183.467 232.327 164.051C230.491 161.539 228.585 159.074 226.209 155.951C209.361 178.631 192.537 200.23 176.748 222.698C171.101 230.728 165.171 234.226 154.63 231.385L217.973 146.56L159.006 69.9517C169.148 67.9795 176.16 68.9891 182.372 78.0515C196.09 98.0546 211.22 117.095 226.303 137.239C241.48 117.166 256.422 98.1016 270.54 78.2863C276.211 70.2569 282.305 67.2048 292.494 70.163C284.776 80.3758 277.223 90.4243 269.622 100.402C259.363 113.855 249.292 127.472 238.656 140.643C234.868 145.339 235.48 148.391 238.868 152.828C258.54 178.631 277.976 204.691 298 231.315ZM3.07059 145.151C4.76478 136.676 5.89423 128.036 8.24727 119.725C22.3655 69.4117 80.2501 48.4929 120.016 79.6715C143.311 97.9607 149.1 123.739 147.947 152.805H16.6476C14.6711 204.949 52.2961 236.433 100.251 220.374C117.075 214.739 126.981 201.592 131.946 185.157C134.464 176.917 138.629 175.625 146.394 177.973C142.417 198.54 133.405 215.726 114.581 226.478C86.3445 242.584 46.037 237.372 24.8362 214.998C12.318 201.85 7.00016 185.486 4.64712 167.807C4.29417 164.99 3.56473 162.22 3 159.426C3.04706 154.668 3.07059 149.909 3.07059 145.151ZM16.8829 141.653H135.546C134.77 103.948 111.24 77.1594 79.0736 76.9246C43.7781 76.6429 18.4124 102.797 16.8829 141.653Z" fill="black" stroke="black" stroke-width="4"/>
</g>
<defs>
<clipPath id="clip0_6_53">
<rect width="300" height="300" fill="white"/>
</clipPath>
</defs>
</svg>
