<svg width="300" height="300" viewBox="0 0 300 300" fill="none" xmlns="http://www.w3.org/2000/svg">
<path d="M296.883 230.719C286.195 233.438 279.586 230.836 273.656 221.93C260.344 201.984 245.648 182.953 231.469 163.57C229.641 161.063 227.742 158.602 225.375 155.484C208.594 178.125 191.836 199.688 176.109 222.117C170.484 230.133 164.578 233.625 154.078 230.789L217.172 146.109L158.437 69.6328C168.539 67.6641 175.523 68.6719 181.711 77.7188C195.375 97.6875 210.445 116.695 225.469 136.805C240.586 116.766 255.469 97.7344 269.531 77.9531C275.18 69.9375 281.25 66.8906 291.398 69.8438C283.711 80.0391 276.187 90.0703 268.617 100.031C258.398 113.461 248.367 127.055 237.773 140.203C234 144.891 234.609 147.938 237.984 152.367C257.578 178.125 276.937 204.141 296.883 230.719ZM3.11719 144.703C4.80469 136.242 5.92969 127.617 8.27344 119.32C22.3359 69.0938 79.9922 48.2109 119.602 79.3359C142.805 97.5938 148.57 123.328 147.422 152.344H16.6406C14.6719 204.398 52.1484 235.828 99.9141 219.797C116.672 214.172 126.539 201.047 131.484 184.641C133.992 176.414 138.141 175.125 145.875 177.469C141.914 198 132.938 215.156 114.188 225.891C86.0625 241.969 45.9141 236.766 24.7969 214.43C12.3281 201.305 7.03125 184.969 4.6875 167.32C4.33594 164.508 3.60937 161.742 3.04688 158.953C3.09375 154.203 3.11719 149.453 3.11719 144.703ZM16.875 141.211H135.07C134.297 103.57 110.859 76.8281 78.8203 76.5938C43.6641 76.3125 18.3984 102.422 16.875 141.211Z" fill="black"/>
</svg>
