<svg width="300" height="300" viewBox="0 0 300 300" fill="none" xmlns="http://www.w3.org/2000/svg">
<path d="M100 300C127.6 300 150 277.6 150 250V200H100C72.4 200 50 222.4 50 250C50 277.6 72.4 300 100 300Z" fill="#0ACF83"/>
<path d="M50 150C50 122.4 72.4 100 100 100H150V200H100C72.4 200 50 177.6 50 150Z" fill="#A259FF"/>
<path d="M50 50C50 22.4 72.4 0 100 0H150V100H100C72.4 100 50 77.6 50 50Z" fill="#F24E1E"/>
<path d="M150 0H200C227.6 0 250 22.4 250 50C250 77.6 227.6 100 200 100H150V0Z" fill="#FF7262"/>
<path d="M250 150C250 177.6 227.6 200 200 200C172.4 200 150 177.6 150 150C150 122.4 172.4 100 200 100C227.6 100 250 122.4 250 150Z" fill="#1ABCFE"/>
</svg>
