<svg width="300" height="300" viewBox="0 0 300 300" fill="none" xmlns="http://www.w3.org/2000/svg">
<path d="M149.999 4C114.382 4.00148 79.9268 16.6766 52.7995 39.7575C25.6722 62.8383 7.64287 94.8187 1.93739 129.976C-3.76808 165.134 3.22265 201.175 21.6587 231.65C40.0948 262.125 68.7732 285.045 102.562 296.31C110.062 297.623 112.875 293.123 112.875 289.185C112.875 285.623 112.687 273.81 112.687 261.248C74.9999 268.185 65.2499 252.061 62.25 243.624C58.9211 235.418 53.6442 228.146 46.8751 222.436C41.6251 219.623 34.1252 212.686 46.6874 212.499C51.4842 213.019 56.0848 214.688 60.0994 217.365C64.1141 220.041 67.4244 223.646 69.7499 227.873C71.8015 231.559 74.5601 234.803 77.8677 237.421C81.1753 240.038 84.9669 241.977 89.0253 243.127C93.0836 244.276 97.3289 244.614 101.518 244.12C105.707 243.626 109.757 242.31 113.437 240.248C114.086 232.623 117.485 225.493 123 220.186C89.6248 216.436 54.75 203.498 54.75 146.124C54.5392 131.217 60.0403 116.793 70.1249 105.812C65.5392 92.8556 66.0757 78.6367 71.6249 66.0625C71.6249 66.0625 84.1869 62.1249 112.875 81.4374C137.419 74.687 163.33 74.687 187.874 81.4374C216.561 61.9375 229.124 66.0625 229.124 66.0625C234.674 78.6365 235.21 92.8557 230.624 105.812C240.739 116.775 246.245 131.211 245.999 146.124C245.999 203.686 210.936 216.436 177.562 220.186C181.141 223.815 183.898 228.171 185.645 232.959C187.392 237.747 188.089 242.855 187.687 247.936C187.687 267.999 187.499 284.123 187.499 289.186C187.499 293.124 190.311 297.811 197.811 296.311C231.541 284.954 260.137 261.98 278.495 231.489C296.852 200.999 303.777 164.976 298.031 129.853C292.286 94.729 274.246 62.7902 247.131 39.7374C220.015 16.6847 185.59 4.01852 149.999 4V4Z" fill="black"/>
</svg>
