<svg width="300" height="300" viewBox="0 0 300 300" fill="none" xmlns="http://www.w3.org/2000/svg">
<path d="M149.999 9C115.569 9.00143 82.2626 21.2541 56.0395 43.5655C29.8165 65.877 12.3881 96.7914 6.87281 130.777C1.35752 164.763 8.11523 199.602 25.9368 229.061C43.7583 258.521 71.4808 280.677 104.144 291.567C111.394 292.836 114.112 288.486 114.112 284.679C114.112 281.236 113.931 269.817 113.931 257.673C77.4999 264.379 68.075 248.792 65.175 240.636C61.9571 232.704 56.856 225.674 50.3126 220.155C45.2376 217.436 37.9877 210.73 50.1312 210.549C54.7681 211.052 59.2153 212.666 63.0961 215.253C66.9769 217.84 70.1769 221.324 72.4249 225.411C74.4081 228.973 77.0747 232.11 80.2721 234.64C83.4695 237.17 87.1347 239.045 91.0578 240.156C94.9808 241.267 99.0846 241.593 103.134 241.116C107.183 240.638 111.099 239.367 114.656 237.373C115.283 230.002 118.569 223.11 123.9 217.98C91.6373 214.355 57.925 201.848 57.925 146.387C57.7213 131.976 63.0389 118.034 72.7874 107.418C68.3545 94.8938 68.8732 81.1488 74.2374 68.9938C74.2374 68.9938 86.3806 65.1874 114.112 83.8562C137.838 77.3308 162.886 77.3308 186.612 83.8562C214.342 65.0063 226.486 68.9938 226.486 68.9938C231.851 81.1486 232.37 94.8939 227.936 107.418C237.714 118.015 243.036 131.97 242.799 146.387C242.799 202.03 208.905 214.355 176.643 217.98C180.103 221.488 182.768 225.698 184.457 230.327C186.146 234.956 186.819 239.893 186.43 244.805C186.43 264.199 186.249 279.786 186.249 284.68C186.249 288.486 188.968 293.017 196.218 291.567C228.823 280.589 256.466 258.38 274.211 228.906C291.957 199.432 298.651 164.61 293.097 130.658C287.544 96.7047 270.105 65.8305 243.893 43.5462C217.681 21.2618 184.403 9.01791 149.999 9V9Z" fill="black"/>
</svg>
