<svg width="300" height="300" viewBox="0 0 300 300" fill="none" xmlns="http://www.w3.org/2000/svg">
<path d="M0 0H300V300H0V0Z" fill="#F7DF1E"/>
<path d="M78.8813 250.702L101.838 236.808C106.268 244.661 110.297 251.305 119.961 251.305C129.225 251.305 135.067 247.682 135.067 233.586V137.729H163.259V233.985C163.259 263.184 146.142 276.476 121.17 276.476C98.6169 276.476 85.5258 264.796 78.8801 250.699L78.8813 250.702ZM178.572 247.68L201.526 234.39C207.57 244.259 215.424 251.508 229.317 251.508C241 251.508 248.448 245.667 248.448 237.612C248.448 227.946 240.796 224.522 227.907 218.885L220.861 215.862C200.521 207.205 187.029 196.33 187.029 173.373C187.029 152.228 203.139 136.117 228.312 136.117C246.234 136.117 259.123 142.361 268.385 158.672L246.434 172.77C241.6 164.111 236.366 160.687 228.311 160.687C220.054 160.687 214.818 165.923 214.818 172.77C214.818 181.227 220.054 184.652 232.136 189.888L239.183 192.908C263.148 203.18 276.64 213.65 276.64 237.21C276.64 262.586 256.704 276.479 229.921 276.479C203.742 276.479 186.826 263.994 178.57 247.682" fill="black"/>
</svg>
