<svg width="300" height="300" viewBox="0 0 300 300" fill="none" xmlns="http://www.w3.org/2000/svg">
<path d="M149.966 79.1308C211.729 31.1819 180.031 0 180.031 0C184.748 49.5692 128.997 61.2734 114.052 95.3363C103.855 118.58 121.036 138.931 149.945 164.582C147.39 158.901 143.448 153.381 139.458 147.792C125.846 128.731 111.667 108.874 149.966 79.1308Z" fill="#E76F00"/>
<path d="M159.827 175.097C159.827 175.097 178.408 160.105 163.693 143.445C113.81 86.9237 218.25 61.2734 218.25 61.2734C154.485 91.9922 164.004 110.226 180.032 132.377C197.192 156.129 159.827 175.097 159.827 175.097Z" fill="#E76F00"/>
<path d="M214.534 219.803C271.772 190.554 245.308 162.448 226.836 166.235C222.308 167.161 220.29 167.964 220.29 167.964C220.29 167.964 221.971 165.375 225.181 164.254C261.724 151.621 289.827 201.515 213.384 221.276C213.384 221.276 214.27 220.498 214.534 219.803Z" fill="#5382A1"/>
<path d="M95.4344 182.783C59.623 178.081 115.07 165.13 115.07 165.13C115.07 165.13 93.5378 163.702 67.0555 176.29C35.7416 191.186 144.513 197.961 200.819 183.398C206.673 179.467 214.763 176.061 214.763 176.061C214.763 176.061 191.722 180.107 168.776 182.011C140.699 184.324 110.555 184.775 95.4344 182.783Z" fill="#5382A1"/>
<path d="M109.06 210.711C89.0898 208.68 102.166 199.162 102.166 199.162C50.4904 216.027 130.917 235.153 203.124 214.389C195.449 211.729 190.568 206.862 190.568 206.862C155.278 213.545 134.884 213.331 109.06 210.711Z" fill="#5382A1"/>
<path d="M117.761 240.929C97.8063 238.674 109.464 232.007 109.464 232.007C62.5557 244.896 137.996 271.524 197.718 246.354C187.937 242.613 180.933 238.295 180.933 238.295C154.292 243.252 141.935 243.641 117.761 240.929Z" fill="#5382A1"/>
<path d="M242.675 256.301C242.675 256.301 251.302 263.291 233.174 268.699C198.701 278.968 89.6962 282.069 59.4151 269.109C48.5298 264.452 68.9428 257.99 75.3639 256.633C82.0606 255.205 85.8874 255.472 85.8874 255.472C73.7819 247.086 7.64208 271.938 52.2917 279.055C174.058 298.474 274.26 270.31 242.675 256.301Z" fill="#5382A1"/>
<path d="M262 271.574C260.002 297.138 175.635 302.515 120.694 299.057C84.853 296.797 77.6699 291.148 77.5648 291.066C111.868 296.627 169.702 297.639 216.595 288.961C258.159 281.265 262 271.574 262 271.574Z" fill="#5382A1"/>
</svg>
