<svg width="300" height="300" viewBox="0 0 300 300" fill="none" xmlns="http://www.w3.org/2000/svg">
<path fill-rule="evenodd" clip-rule="evenodd" d="M209.532 97.8889C213.48 109.308 216.323 120.967 217.258 133.05C218.419 148.041 217.887 162.926 214.727 177.671C214.641 178.077 214.459 178.458 214.324 178.851C213.332 178.854 212.322 178.731 211.352 178.881C203.165 180.167 194.984 181.5 186.804 182.826C178.348 184.196 169.88 185.512 161.439 186.975C158.448 187.492 154.747 186.874 153.539 191.011C153.505 191.124 153.16 191.144 152.961 191.208L153.369 166.487C153.229 146.605 153.091 126.722 152.954 106.839L156.894 106.163C163.338 105.108 169.782 104.038 176.231 103.012C183.926 101.79 191.63 100.602 199.33 99.4089C202.727 98.8801 206.128 98.3956 209.532 97.8889V97.8889Z" fill="#439934"/>
<path fill-rule="evenodd" clip-rule="evenodd" d="M144.825 263.272C140.668 259.698 136.367 256.282 132.382 252.524C110.943 232.302 95.2606 208.501 87.5378 179.806C85.4103 171.908 83.9911 163.883 83.5361 155.722C83.2164 150.011 82.754 144.248 83.1573 138.567C84.2322 123.456 86.4162 108.489 90.8483 93.934L91.0918 93.5946C91.5222 94.1677 92.142 94.6743 92.3609 95.3212C96.6872 108.062 100.981 120.812 105.254 133.569C118.678 173.659 132.085 213.759 145.531 253.84C145.794 254.622 146.475 255.264 146.965 255.97L144.825 263.272V263.272Z" fill="#45A538"/>
<path fill-rule="evenodd" clip-rule="evenodd" d="M209.532 97.8889C206.128 98.3956 202.724 98.8801 199.328 99.404C191.627 100.597 183.924 101.785 176.228 103.007C169.779 104.033 163.335 105.103 156.891 106.158L152.951 106.834L152.922 104.264C152.791 102.151 152.567 100.041 152.543 97.9283C152.373 84.455 152.267 70.9817 152.1 57.5085C151.997 49.0748 151.842 40.6436 151.67 32.2123C151.564 26.9735 151.451 21.7323 151.215 16.5009C151.087 13.6897 150.634 10.8932 150.45 8.08198C150.347 6.46607 150.489 4.83787 150.521 3.21458C152.531 7.108 154.496 11.0309 156.562 14.8948C159.825 21.0043 165.025 25.5052 169.705 30.4169C188.208 49.8274 201.345 72.396 209.532 97.8889V97.8889Z" fill="#46A037"/>
<path fill-rule="evenodd" clip-rule="evenodd" d="M152.959 191.206C153.158 191.142 153.505 191.122 153.537 191.009C154.744 186.872 158.446 187.489 161.437 186.973C169.878 185.512 178.346 184.193 186.802 182.824C194.982 181.498 203.162 180.165 211.35 178.878C212.319 178.726 213.33 178.851 214.321 178.849C212.791 184.309 211.586 189.887 209.646 195.197C207.442 201.221 204.776 207.099 201.945 212.862C197.715 221.477 192.444 229.513 186.32 236.874C181.6 242.551 176.339 247.797 171.066 252.979C168.151 255.844 164.715 258.178 161.518 260.753L160.689 260.188L157.703 257.635L154.614 250.864C152.486 242.937 151.37 234.867 151.185 226.667L151.242 225.287L151.662 219.32C151.803 217.284 151.99 215.25 152.076 213.208C152.393 205.874 152.668 198.54 152.959 191.206V191.206Z" fill="#409433"/>
<path fill-rule="evenodd" clip-rule="evenodd" d="M152.959 191.206C152.668 198.54 152.393 205.874 152.08 213.211C151.994 215.252 151.807 217.286 151.667 219.323L149.786 220.034C145.607 207.731 141.426 195.559 137.336 183.355C130.572 163.165 123.889 142.942 117.136 122.747C111.683 106.446 106.186 90.1611 100.657 73.884C100.399 73.1215 99.6558 72.5263 99.1393 71.8524L111.181 49.7118C111.594 50.43 112.14 51.1015 112.401 51.8737C117.972 68.3599 123.533 84.8485 129.047 101.354C136.219 122.826 143.347 144.315 150.514 165.789C150.799 166.647 151.271 167.439 151.721 168.401L153.369 166.482C153.232 174.724 153.094 182.964 152.959 191.206V191.206Z" fill="#4FAA41"/>
<path fill-rule="evenodd" clip-rule="evenodd" d="M99.1418 71.8549C99.6583 72.5288 100.399 73.124 100.659 73.8864C106.188 90.1635 111.685 106.448 117.138 122.75C123.892 142.945 130.574 163.167 137.338 183.357C141.426 195.559 145.607 207.734 149.788 220.036L151.67 219.325L151.249 225.292L150.868 226.667C150.214 233.199 149.663 239.747 148.866 246.264C148.465 249.531 147.614 252.738 146.967 255.972C146.48 255.266 145.796 254.624 145.533 253.842C132.087 213.759 118.68 173.662 105.256 133.572C100.984 120.814 96.6896 108.064 92.3633 95.3236C92.1445 94.6768 91.5271 94.1701 91.0942 93.597C93.7751 86.3488 96.4584 79.1006 99.1418 71.8549V71.8549Z" fill="#4AA73C"/>
<path fill-rule="evenodd" clip-rule="evenodd" d="M153.367 166.485L151.719 168.403C151.269 167.442 150.797 166.647 150.511 165.791C143.347 144.317 136.217 122.828 129.045 101.357C123.53 84.851 117.969 68.3624 112.399 51.8762C112.14 51.1039 111.594 50.43 111.179 49.7143L126.071 30.1242C126.541 30.7514 127.21 31.3097 127.453 32.0156C131.588 44.1189 135.685 56.2369 139.758 68.3624C143.563 79.686 147.311 91.0269 151.161 102.336C151.419 103.093 152.317 103.629 152.917 104.269L152.946 106.839C153.089 126.717 153.229 146.602 153.367 166.485V166.485Z" fill="#57AE47"/>
<path fill-rule="evenodd" clip-rule="evenodd" d="M152.922 104.264C152.321 103.625 151.424 103.088 151.165 102.331C147.316 91.0219 143.568 79.6811 139.763 68.3574C135.69 56.232 131.593 44.1164 127.458 32.0107C127.215 31.3048 126.546 30.7465 126.076 30.1193C130.919 25.3773 135.611 20.4657 140.649 15.9426C145.127 11.9238 148.728 7.61467 148.893 1.26419C148.9 1.00102 149.038 0.737856 149.25 0L150.526 3.21213C150.494 4.83788 150.349 6.46362 150.455 8.07952C150.639 10.8908 151.092 13.6872 151.22 16.4985C151.456 21.7299 151.569 26.9711 151.675 32.2099C151.844 40.6411 151.999 49.0724 152.105 57.506C152.27 70.9793 152.378 84.4525 152.548 97.9258C152.567 100.043 152.789 102.151 152.922 104.264V104.264Z" fill="#60B24F"/>
<path fill-rule="evenodd" clip-rule="evenodd" d="M146.962 255.97C147.609 252.735 148.46 249.526 148.861 246.262C149.66 239.747 150.209 233.197 150.863 226.664L151.025 226.64L151.188 226.667C151.372 234.867 152.489 242.937 154.616 250.864C154.183 251.434 153.571 251.943 153.342 252.588C151.554 257.63 149.869 262.711 148.072 267.753C147.826 268.442 147.142 268.978 146.66 269.583L144.823 263.272L146.962 255.97V255.97Z" fill="#A9AA88"/>
<path fill-rule="evenodd" clip-rule="evenodd" d="M146.662 269.586C147.144 268.981 147.83 268.444 148.074 267.756C149.872 262.714 151.559 257.635 153.345 252.59C153.573 251.946 154.183 251.437 154.619 250.866L157.705 257.64C157.095 258.505 156.254 259.285 155.915 260.249L150.002 277.611C149.759 278.307 148.927 278.799 148.371 279.387L146.662 269.586V269.586Z" fill="#B6B598"/>
<path fill-rule="evenodd" clip-rule="evenodd" d="M148.372 279.384C148.93 278.799 149.759 278.305 150.002 277.609L155.915 260.247C156.252 259.285 157.095 258.503 157.705 257.637L160.694 260.188C159.25 261.614 158.448 263.262 158.93 265.345L158.023 268.316C157.61 268.826 157.012 269.268 156.808 269.851C154.744 275.761 152.774 281.704 150.696 287.614C150.433 288.364 149.702 288.952 149.186 289.611C148.918 286.2 148.645 282.796 148.372 279.384V279.384Z" fill="#C2C1A7"/>
<path fill-rule="evenodd" clip-rule="evenodd" d="M149.188 289.611C149.702 288.949 150.433 288.362 150.698 287.614C152.777 281.706 154.747 275.764 156.81 269.851C157.014 269.271 157.61 268.826 158.025 268.316L156.773 281.955C156.439 282.341 155.954 282.678 155.795 283.128C154.38 287.097 153.047 291.097 151.628 295.066C151.335 295.885 150.775 296.608 150.337 297.373C149.948 296.864 149.252 296.372 149.22 295.841C149.095 293.773 149.181 291.689 149.188 289.611V289.611Z" fill="#CECDB7"/>
<path fill-rule="evenodd" clip-rule="evenodd" d="M150.334 297.373C150.772 296.606 151.333 295.883 151.625 295.066C153.047 291.099 154.378 287.1 155.792 283.128C155.952 282.678 156.439 282.343 156.771 281.954L156.8 290.907L153.805 298.591L150.334 297.373V297.373Z" fill="#DBDAC7"/>
<path fill-rule="evenodd" clip-rule="evenodd" d="M153.805 298.593L156.8 290.91L157.418 300L153.805 298.593V298.593Z" fill="#EBE9DC"/>
<path fill-rule="evenodd" clip-rule="evenodd" d="M158.93 265.348C158.448 263.265 159.248 261.614 160.694 260.19L161.523 260.756L158.93 265.348V265.348Z" fill="#CECDB7"/>
<path fill-rule="evenodd" clip-rule="evenodd" d="M151.187 226.669L151.025 226.642L150.863 226.667L151.244 225.292L151.187 226.669V226.669Z" fill="#4FAA41"/>
</svg>
