<svg width="300" height="300" viewBox="0 0 300 300" fill="none" xmlns="http://www.w3.org/2000/svg">
<mask id="mask0_206_147" style="mask-type:luminance" maskUnits="userSpaceOnUse" x="48" y="34" width="84" height="108">
<path d="M48.022 64.4787C48.022 64.4787 64.7489 46.1145 76.3338 38.5036C80.0249 36.081 107.477 21.7529 125.106 71.0659C134.75 98.0659 134.912 118.178 112.99 126.756C99.8622 131.893 104.554 141.511 104.554 141.511" fill="white"/>
</mask>
<g mask="url(#mask0_206_147)">
<path d="M48.022 64.4787C48.022 64.4787 64.7489 46.1145 76.3338 38.5036C80.0249 36.081 107.477 21.7529 125.106 71.0659C134.75 98.0659 134.912 118.178 112.99 126.756C99.8622 131.893 104.554 141.511 104.554 141.511" fill="url(#paint0_linear_206_147)"/>
</g>
<path d="M74.7312 36.2667C62.9796 43.9867 46.5734 61.9377 45.8812 62.6964C44.8555 63.8252 44.9757 65.5412 46.157 66.5232C47.3352 67.504 49.1258 67.391 50.1529 66.2608C50.3198 66.0777 66.7843 48.063 77.9388 40.7379C78.2729 40.5144 86.4103 35.2924 96.3208 38.4347C106.743 41.7407 115.771 53.3292 122.423 71.9427C133.012 101.58 129.872 117.226 111.919 124.245C106.74 126.276 103.33 129.212 101.788 132.988C99.752 137.969 101.896 142.467 101.989 142.66C102.643 144.009 104.307 144.582 105.72 143.964C107.137 143.352 107.766 141.75 107.134 140.39C107.123 140.364 105.913 137.696 107.093 134.901C108.063 132.594 110.408 130.693 114.063 129.267C141.147 118.666 135.621 92.1255 127.783 70.1851C120.431 49.6179 110.447 37.2071 98.1063 33.2893C85.7697 29.3754 75.8219 35.5535 74.7312 36.2667Z" fill="#363254"/>
<mask id="mask1_206_147" style="mask-type:luminance" maskUnits="userSpaceOnUse" x="73" y="160" width="78" height="95">
<path d="M150.627 161.108V230.712C150.627 247.874 133.458 254.025 112.282 254.025C91.1036 254.025 73.9424 247.874 73.9424 230.712V160.287" fill="white"/>
</mask>
<g mask="url(#mask1_206_147)">
<path d="M150.627 161.108V230.712C150.627 247.874 133.458 254.025 112.282 254.025C91.1036 254.025 73.9424 247.874 73.9424 230.712V160.287" fill="url(#paint1_linear_206_147)"/>
</g>
<path d="M71.1096 160.287V230.712C71.1096 247.496 85.7277 256.737 112.282 256.737C138.836 256.737 153.46 247.496 153.46 230.712V161.108C153.46 159.61 152.191 158.396 150.627 158.396C149.062 158.396 147.794 159.61 147.794 161.108V230.712C147.794 247.742 128.486 251.314 112.282 251.314C96.0848 251.314 76.776 247.742 76.776 230.712V160.287C76.776 158.792 75.5062 157.578 73.9423 157.578C72.3788 157.578 71.1096 158.792 71.1096 160.287Z" fill="#363254"/>
<path d="M90.7465 230.629C90.7465 237.572 86.6887 243.216 81.6808 243.216C76.6723 243.216 72.6133 237.572 72.6133 230.629C72.6133 223.672 76.6723 207.967 81.6808 207.967C86.6887 207.967 90.7465 223.672 90.7465 230.629Z" fill="#8B9DD7"/>
<path d="M73.5587 230.629C73.5587 223.065 77.8592 208.87 81.6808 208.87C85.5008 208.87 89.8027 223.065 89.8027 230.629C89.8027 237.074 86.1613 242.315 81.6808 242.315C77.2033 242.315 73.5587 237.074 73.5587 230.629ZM71.668 230.629C71.668 238.068 76.1582 244.123 81.6808 244.123C87.2013 244.123 91.6895 238.068 91.6895 230.629C91.6895 223.834 87.7021 207.061 81.6808 207.061C75.6609 207.061 71.668 223.834 71.668 230.629Z" fill="#363254"/>
<path d="M75.0557 231.884C75.0557 225.195 79.9629 213.153 83.5449 213.153C83.8882 213.153 84.2244 213.323 84.5481 213.582C83.6528 211.462 82.6271 210.059 81.5405 210.059C77.9558 210.059 75.0557 225.198 75.0557 231.884Z" fill="#A6BDE6"/>
<path d="M95.0225 237.316C95.0225 242.681 91.7964 247.031 87.8137 247.031C83.8274 247.031 80.5967 242.681 80.5967 237.316C80.5967 231.936 83.8274 219.818 87.8137 219.818C91.7964 219.818 95.0225 231.936 95.0225 237.316Z" fill="#8B9DD7"/>
<path d="M81.5405 237.316C81.5405 231.693 84.9289 220.724 87.8137 220.724C90.699 220.724 94.077 231.693 94.077 237.316C94.077 242.173 91.2658 246.127 87.8137 246.127C84.3527 246.127 81.5405 242.173 81.5405 237.316ZM79.6523 237.316C79.6523 243.169 83.3138 247.935 87.8137 247.935C92.3069 247.935 95.9669 243.169 95.9669 237.316C95.9669 232.736 93.0738 218.914 87.8137 218.914C82.5453 218.914 79.6523 232.736 79.6523 237.316Z" fill="#363254"/>
<path d="M83.6292 234.12C83.2664 230.297 86.6476 223.952 89.2817 223.488C89.5284 223.456 89.782 223.514 90.0343 223.619C89.2622 222.52 88.3886 221.645 87.6401 221.988C85.0325 223.223 83.2664 230.31 83.6292 234.12Z" fill="#A6BDE6"/>
<mask id="mask2_206_147" style="mask-type:luminance" maskUnits="userSpaceOnUse" x="191" y="161" width="77" height="94">
<path d="M267.933 161.958V231.56C267.933 248.725 250.764 254.873 229.588 254.873C208.411 254.873 191.243 248.725 191.243 231.56V161.137" fill="white"/>
</mask>
<g mask="url(#mask2_206_147)">
<path d="M267.933 161.958V231.56C267.933 248.725 250.764 254.873 229.588 254.873C208.411 254.873 191.243 248.725 191.243 231.56V161.137" fill="url(#paint2_linear_206_147)"/>
</g>
<path d="M188.408 161.137V231.56C188.408 248.341 203.033 257.584 229.588 257.584C241.54 257.584 251.124 255.712 258.077 252.023C266.377 247.617 270.766 240.543 270.766 231.56V161.958C270.766 160.461 269.496 159.248 267.933 159.248C266.369 159.248 265.103 160.461 265.103 161.958V231.56C265.103 238.651 261.903 243.793 255.326 247.286C249.309 250.475 240.411 252.162 229.588 252.162C213.388 252.162 194.078 248.585 194.078 231.56V161.137C194.078 159.638 192.806 158.424 191.243 158.424C189.679 158.424 188.408 159.638 188.408 161.137Z" fill="#363254"/>
<path d="M208.051 231.476C208.051 238.419 203.995 244.072 198.988 244.072C193.972 244.072 189.917 238.419 189.917 231.476C189.917 224.523 193.972 208.817 198.988 208.817C203.995 208.817 208.051 224.523 208.051 231.476Z" fill="#7483CA"/>
<path d="M190.859 231.476C190.859 227.925 191.934 222.31 193.47 217.823C195.18 212.826 197.295 209.72 198.988 209.72C202.806 209.72 207.108 223.913 207.108 231.476C207.108 237.924 203.466 243.167 198.988 243.167C194.505 243.167 190.859 237.924 190.859 231.476ZM191.675 217.261C190.082 221.907 188.97 227.755 188.97 231.476C188.97 238.918 193.464 244.975 198.988 244.975C204.507 244.975 208.995 238.918 208.995 231.476C208.995 224.681 205.007 207.914 198.988 207.914C195.586 207.914 193.134 212.993 191.675 217.261Z" fill="#363254"/>
<path d="M192.365 232.74C192.365 226.048 197.269 213.999 200.851 213.999C201.195 213.999 201.53 214.174 201.855 214.429C200.957 212.313 199.934 210.907 198.848 210.907C195.261 210.907 192.365 226.048 192.365 232.74Z" fill="#839AD6"/>
<path d="M212.33 238.162C212.33 243.534 209.105 247.874 205.119 247.874C201.136 247.874 197.906 243.534 197.906 238.162C197.906 232.782 201.136 220.667 205.119 220.667C209.105 220.667 212.33 232.782 212.33 238.162Z" fill="#7483CA"/>
<path d="M198.852 238.162C198.852 232.538 202.233 221.572 205.119 221.572C208 221.572 211.384 232.538 211.384 238.162C211.384 243.02 208.572 246.975 205.119 246.975C201.661 246.975 198.852 243.02 198.852 238.162ZM196.963 238.162C196.963 244.021 200.621 248.781 205.119 248.781C209.616 248.781 213.274 244.021 213.274 238.162C213.274 233.583 210.38 219.764 205.119 219.764C199.854 219.764 196.963 233.583 196.963 238.162Z" fill="#363254"/>
<path d="M200.938 234.969C200.57 231.15 203.953 224.805 206.588 224.339C206.837 224.305 207.091 224.361 207.34 224.467C206.568 223.369 205.695 222.492 204.946 222.836C202.337 224.071 200.57 231.157 200.938 234.969Z" fill="#839AD6"/>
<mask id="mask3_206_147" style="mask-type:luminance" maskUnits="userSpaceOnUse" x="104" y="66" width="25" height="70">
<path d="M118.368 66.0466C133.302 90.1302 131.71 110.475 111.812 121.14C99.8988 127.529 106.457 135.954 106.457 135.954" fill="white"/>
</mask>
<g mask="url(#mask3_206_147)">
<path d="M118.368 66.0466C133.302 90.1302 131.71 110.475 111.812 121.14C99.8988 127.529 106.457 135.954 106.457 135.954" fill="url(#paint3_linear_206_147)"/>
</g>
<path d="M116.923 63.7135C115.575 64.4786 115.129 66.1427 115.93 67.43C124.244 80.8293 127.219 92.9646 124.538 102.516C122.633 109.306 117.88 114.776 110.43 118.776C105.72 121.299 102.911 124.481 102.075 128.23C100.939 133.325 104.054 137.403 104.187 137.573C105.116 138.767 106.87 139.008 108.127 138.131C109.381 137.253 109.655 135.561 108.746 134.352C108.732 134.329 107.005 131.984 107.628 129.311C108.127 127.173 110.001 125.22 113.196 123.506C122.036 118.764 127.695 112.18 130.012 103.921C133.096 92.9244 129.916 79.3484 120.803 64.6618C120.006 63.3732 118.264 62.951 116.923 63.7135Z" fill="#080604"/>
<mask id="mask4_206_147" style="mask-type:luminance" maskUnits="userSpaceOnUse" x="2" y="48" width="296" height="210">
<path d="M205.606 48.9723C205.606 48.9723 180.811 48.6827 90.2186 51.66C-0.368803 54.636 2.97442 86.8554 2.83374 133.126V244.42C2.83374 253.834 11.0575 257.631 21.2049 257.631C31.3507 257.631 39.5868 253.834 39.5868 244.42C39.5868 244.42 41.9263 212.619 43.946 193.274C48.4644 122.997 133.996 204.83 196.172 201.011C252.673 197.538 297.167 178.194 297.167 132.223C297.167 86.2423 268.008 48.9723 205.606 48.9723Z" fill="white"/>
</mask>
<g mask="url(#mask4_206_147)">
<path d="M205.606 48.9723C205.606 48.9723 180.811 48.6827 90.2186 51.66C-0.368803 54.636 2.97442 86.8554 2.83374 133.126V244.42C2.83374 253.834 11.0575 257.631 21.2049 257.631C31.3507 257.631 39.5868 253.834 39.5868 244.42C39.5868 244.42 41.9263 212.619 43.946 193.274C48.4644 122.997 133.996 204.83 196.172 201.011C252.673 197.538 297.167 178.194 297.167 132.223C297.167 86.2423 268.008 48.9723 205.606 48.9723Z" fill="url(#paint4_linear_206_147)"/>
</g>
<path d="M5.66635 244.42V133.126C5.66635 133.137 5.67351 128.222 5.67351 128.222C5.68886 85.4225 5.70114 57.147 90.3138 54.3671C179.732 51.4313 205.322 51.6781 205.572 51.6794H205.606C234.095 51.6794 257.31 59.8242 272.741 75.2305C286.868 89.33 294.334 109.037 294.334 132.223C294.334 181.843 240.854 195.548 195.992 198.307C172.38 199.754 144.528 188.174 119.955 177.955C92.4103 166.503 68.6225 156.614 53.9767 165.199C46.2409 169.732 42.0363 178.862 41.1205 193.108C39.1298 212.165 36.7827 243.907 36.7608 244.231C36.7541 253.555 27.0119 254.921 21.2048 254.921C15.4034 254.921 5.66635 253.555 5.66635 244.42ZM90.123 48.9528C0.0358062 51.9106 0.0204635 83.9183 0.00716224 128.218L0 133.118V244.42C0 254.389 7.92809 260.347 21.2048 260.347C34.4933 260.347 42.4203 254.389 42.4203 244.42C42.4367 244.289 44.7726 212.623 46.7663 193.542C47.569 181.088 50.8943 173.366 56.9356 169.821C69.0721 162.711 92.6844 172.53 117.697 182.929C142.858 193.391 171.375 205.251 196.354 203.716C263.192 199.604 300 174.215 300 132.223C300 107.615 291.987 86.6111 276.832 71.4776C260.308 54.9815 235.677 46.2599 205.606 46.2599H205.64C205.392 46.257 179.74 46.0014 90.123 48.9528Z" fill="#363254"/>
<mask id="mask5_206_147" style="mask-type:luminance" maskUnits="userSpaceOnUse" x="5" y="134" width="7" height="110">
<path d="M5.30526 136.178C5.40195 146.629 3.91988 237.921 9.73306 243.403C7.90669 239.361 11.9022 150.917 11.851 145.359L11.7973 142.106C11.7973 140.558 11.7973 139.032 11.7973 137.512C9.55657 136.691 7.3818 135.681 5.28224 134.527L5.30526 136.178Z" fill="white"/>
</mask>
<g mask="url(#mask5_206_147)">
<path d="M5.30526 136.178C5.40195 146.629 3.91988 237.921 9.73306 243.403C7.90669 239.361 11.9022 150.917 11.851 145.359L11.7973 142.106C11.7973 140.558 11.7973 139.032 11.7973 137.512C9.55657 136.691 7.3818 135.681 5.28224 134.527L5.30526 136.178Z" fill="url(#paint5_linear_206_147)"/>
</g>
<mask id="mask6_206_147" style="mask-type:luminance" maskUnits="userSpaceOnUse" x="5" y="52" width="279" height="87">
<path d="M205.572 52.0341C205.572 52.0341 181.316 51.7509 92.678 54.6633C4.04421 57.5757 5.40453 89.9678 5.40453 133.516L5.42294 135.127C7.47442 136.281 9.60058 137.291 11.7825 138.113C11.803 96.8994 13.57 66.6597 99.0595 63.8512C187.694 60.9388 211.958 61.222 211.958 61.222C245.855 61.222 269.19 72.5728 283.72 90.2822C270.343 67.365 245.016 52.0341 205.572 52.0341Z" fill="white"/>
</mask>
<g mask="url(#mask6_206_147)">
<path d="M205.572 52.0341C205.572 52.0341 181.316 51.7509 92.678 54.6633C4.04421 57.5757 5.40453 89.9678 5.40453 133.516L5.42294 135.127C7.47442 136.281 9.60058 137.291 11.7825 138.113C11.803 96.8994 13.57 66.6597 99.0595 63.8512C187.694 60.9388 211.958 61.222 211.958 61.222C245.855 61.222 269.19 72.5728 283.72 90.2822C270.343 67.365 245.016 52.0341 205.572 52.0341Z" fill="url(#paint6_linear_206_147)"/>
</g>
<mask id="mask7_206_147" style="mask-type:luminance" maskUnits="userSpaceOnUse" x="98" y="167" width="77" height="99">
<path d="M174.7 193.041V242.608C174.7 259.771 157.527 265.935 136.351 265.935C115.174 265.935 98.0095 259.771 98.0095 242.608V167.163" fill="white"/>
</mask>
<g mask="url(#mask7_206_147)">
<path d="M174.7 193.041V242.608C174.7 259.771 157.527 265.935 136.351 265.935C115.174 265.935 98.0095 259.771 98.0095 242.608V167.163" fill="url(#paint7_linear_206_147)"/>
</g>
<path d="M95.1765 167.163V242.608C95.1765 259.398 109.803 268.643 136.351 268.643C162.907 268.643 177.534 259.398 177.534 242.608V193.04C177.534 191.544 176.263 190.329 174.7 190.329C173.138 190.329 171.868 191.544 171.868 193.04V242.608C171.868 259.647 152.555 263.222 136.351 263.222C120.154 263.222 100.843 259.647 100.843 242.608V167.163C100.843 165.666 99.5736 164.453 98.0096 164.453C96.4452 164.453 95.1765 165.666 95.1765 167.163Z" fill="#363254"/>
<path d="M122.13 247.416C122.13 253.872 116.716 259.108 110.03 259.108C103.345 259.108 97.9292 253.872 97.9292 247.416C97.9292 240.952 103.345 226.361 110.03 226.361C116.716 226.361 122.13 240.952 122.13 247.416Z" fill="#8B9DD7"/>
<path d="M98.8743 247.416C98.8743 241.122 104.269 227.262 110.031 227.262C115.793 227.262 121.187 241.122 121.187 247.416C121.187 253.368 116.186 258.206 110.031 258.206C103.883 258.206 98.8743 253.368 98.8743 247.416ZM96.9839 247.416C96.9839 254.36 102.837 260.013 110.031 260.013C117.225 260.013 123.077 254.36 123.077 247.416C123.077 240.868 117.571 225.452 110.031 225.452C102.496 225.452 96.9839 240.868 96.9839 247.416Z" fill="#363254"/>
<path d="M99.9956 248.189C99.9956 242.407 106.771 232.02 111.727 232.02C112.199 232.02 112.658 232.168 113.116 232.394C111.867 230.568 110.457 229.352 108.961 229.352C104.002 229.352 99.9956 242.415 99.9956 248.189Z" fill="#A6BDE6"/>
<path d="M131.988 248.33C131.988 256.846 126.38 263.775 119.461 263.775C112.533 263.775 106.925 256.846 106.925 248.33C106.925 239.804 112.533 220.548 119.461 220.548C126.38 220.548 131.988 239.804 131.988 248.33Z" fill="#8B9DD7"/>
<path d="M107.868 248.33C107.868 239.932 113.476 221.45 119.461 221.45C125.445 221.45 131.045 239.932 131.045 248.33C131.045 256.345 125.85 262.869 119.461 262.869C113.071 262.869 107.868 256.345 107.868 248.33ZM105.979 248.33C105.979 257.343 112.028 264.678 119.461 264.678C126.891 264.678 132.934 257.343 132.934 248.33C132.934 239.771 127.244 219.647 119.461 219.647C111.675 219.647 105.979 239.771 105.979 248.33Z" fill="#363254"/>
<path d="M110.303 249.875C110.303 241.664 117.085 226.907 122.036 226.907C122.508 226.907 122.973 227.12 123.423 227.434C122.183 224.829 120.765 223.111 119.269 223.111C114.31 223.111 110.303 241.675 110.303 249.875Z" fill="#A6BDE6"/>
<path d="M138.564 252.916C138.564 258.944 134.528 263.83 129.547 263.83C124.567 263.83 120.53 258.944 120.53 252.916C120.53 246.859 124.567 233.234 129.547 233.234C134.528 233.234 138.564 246.859 138.564 252.916Z" fill="#8B9DD7"/>
<path d="M121.475 252.916C121.475 246.387 125.756 234.137 129.547 234.137C133.346 234.137 137.62 246.387 137.62 252.916C137.62 258.439 134.001 262.925 129.547 262.925C125.097 262.925 121.475 258.439 121.475 252.916ZM119.585 252.916C119.585 259.433 124.058 264.734 129.547 264.734C135.045 264.734 139.507 259.433 139.507 252.916C139.507 246.981 135.539 232.332 129.547 232.332C123.557 232.332 119.585 246.981 119.585 252.916Z" fill="#363254"/>
<path d="M124.323 249.316C123.866 245.011 128.092 237.875 131.384 237.359C131.695 237.309 132.01 237.382 132.329 237.5C131.362 236.26 130.27 235.277 129.334 235.668C126.071 237.057 123.866 245.026 124.323 249.316Z" fill="#A6BDE6"/>
<mask id="mask8_206_147" style="mask-type:luminance" maskUnits="userSpaceOnUse" x="215" y="158" width="78" height="106">
<path d="M292.045 158.978V240.67C292.045 257.832 274.873 263.991 253.697 263.991C232.518 263.991 215.356 257.832 215.356 240.67V193.733" fill="white"/>
</mask>
<g mask="url(#mask8_206_147)">
<path d="M292.045 158.978V240.67C292.045 257.832 274.873 263.991 253.697 263.991C232.518 263.991 215.356 257.832 215.356 240.67V193.733" fill="url(#paint8_linear_206_147)"/>
</g>
<path d="M289.208 158.978V240.67C289.208 257.707 269.896 261.28 253.697 261.28C237.501 261.28 218.19 257.707 218.19 240.67V193.733C218.19 192.236 216.921 191.02 215.356 191.02C213.793 191.02 212.523 192.236 212.523 193.733V240.67C212.523 257.457 227.146 266.705 253.697 266.705C280.25 266.705 294.875 257.457 294.875 240.67V158.978C294.875 157.48 293.609 156.269 292.045 156.269C290.479 156.269 289.208 157.48 289.208 158.978Z" fill="#363254"/>
<path d="M239.478 245.476C239.478 251.929 234.061 257.164 227.376 257.164C220.692 257.164 215.276 251.929 215.276 245.476C215.276 239.012 220.692 224.419 227.376 224.419C234.061 224.419 239.478 239.012 239.478 245.476Z" fill="#8B9DD7"/>
<path d="M216.222 245.476C216.222 239.18 221.614 225.326 227.376 225.326C233.141 225.326 238.535 239.18 238.535 245.476C238.535 251.423 233.528 256.265 227.376 256.265C221.226 256.265 216.222 251.423 216.222 245.476ZM214.332 245.476C214.332 252.421 220.182 258.071 227.376 258.071C234.57 258.071 240.422 252.421 240.422 245.476C240.422 238.927 234.915 223.517 227.376 223.517C219.84 223.517 214.332 238.927 214.332 245.476Z" fill="#363254"/>
<path d="M217.342 246.245C217.342 240.466 224.115 230.081 229.074 230.081C229.546 230.081 230.003 230.227 230.462 230.451C229.215 228.624 227.806 227.41 226.308 227.41C221.349 227.41 217.342 240.474 217.342 246.245Z" fill="#A6BDE6"/>
<path d="M249.337 246.387C249.337 254.907 243.73 261.835 236.806 261.835C229.876 261.835 224.27 254.907 224.27 246.387C224.27 237.86 229.876 218.61 236.806 218.61C243.73 218.61 249.337 237.86 249.337 246.387Z" fill="#8B9DD7"/>
<path d="M225.214 246.387C225.214 237.989 230.818 219.512 236.806 219.512C242.793 219.512 248.391 237.989 248.391 246.387C248.391 254.404 243.193 260.931 236.806 260.931C230.412 260.931 225.214 254.404 225.214 246.387ZM223.326 246.387C223.326 255.402 229.372 262.735 236.806 262.735C244.236 262.735 250.28 255.402 250.28 246.387C250.28 237.832 244.592 217.702 236.806 217.702C229.016 217.702 223.326 237.832 223.326 246.387Z" fill="#363254"/>
<path d="M227.65 247.935C227.65 239.726 234.432 224.969 239.381 224.969C239.855 224.969 240.319 225.181 240.77 225.494C239.531 222.888 238.114 221.174 236.615 221.174C231.656 221.174 227.65 239.732 227.65 247.935Z" fill="#A6BDE6"/>
<path d="M255.909 250.974C255.909 257.005 251.874 261.891 246.894 261.891C241.915 261.891 237.877 257.005 237.877 250.974C237.877 244.919 241.915 231.291 246.894 231.291C251.874 231.291 255.909 244.919 255.909 250.974Z" fill="#8B9DD7"/>
<path d="M238.82 250.974C238.82 244.446 243.098 232.199 246.895 232.199C250.69 232.199 254.967 244.446 254.967 250.974C254.967 256.496 251.342 260.987 246.895 260.987C242.444 260.987 238.82 256.496 238.82 250.974ZM236.932 250.974C236.932 257.494 241.399 262.792 246.895 262.792C252.387 262.792 256.853 257.494 256.853 250.974C256.853 245.041 252.885 230.39 246.895 230.39C240.901 230.39 236.932 245.041 236.932 250.974Z" fill="#363254"/>
<path d="M241.67 247.377C241.214 243.071 245.439 235.936 248.732 235.419C249.041 235.371 249.358 235.439 249.676 235.561C248.707 234.318 247.617 233.341 246.681 233.724C243.417 235.114 241.214 243.085 241.67 247.377Z" fill="#A6BDE6"/>
<path d="M26.857 87.7387C25.8564 89.0871 26.2093 90.9408 27.6515 91.8839C29.0881 92.8256 31.0685 92.4892 32.068 91.1447C37.7656 83.4662 50.5804 81.3502 56.673 83.5312C57.8869 83.9677 59.4212 83.778 60.0918 83.0986C60.762 82.4283 60.3236 81.5268 59.107 81.0917C50.765 78.1013 34.4004 77.5596 26.857 87.7387Z" fill="#363254"/>
<path d="M51.5508 121.491C46.2891 122.591 41.6501 119.671 41.1937 114.971C40.7388 110.264 44.6393 105.56 49.9024 104.449C55.1698 103.345 59.8073 106.257 60.2673 110.968C60.719 115.674 56.8197 120.376 51.5508 121.491ZM62.4312 110.34C61.9038 104.856 56.4252 101.481 50.1818 102.784C43.9461 104.093 39.3136 109.585 39.8375 115.062C40.3624 120.536 45.843 123.92 52.0792 122.622C58.3221 121.309 62.9561 115.818 62.4312 110.34Z" fill="#363254"/>
<path d="M59.9342 111.347C60.3338 115.484 56.9219 119.628 52.3145 120.595C47.6883 121.571 43.6318 118.997 43.2196 114.859C42.8231 110.722 46.2353 106.582 50.8448 105.614C55.4665 104.64 59.5341 107.206 59.9342 111.347Z" fill="#FCFCFC"/>
<path d="M59.2588 111.389C58.0109 108.236 54.6975 106.408 51.8873 107.286C50.3812 107.749 49.3493 108.904 48.8684 110.347L52.7964 112.274L49.1876 114.858C50.5249 117.832 53.6881 119.539 56.4178 118.69C59.2393 117.802 60.5054 114.54 59.2588 111.389Z" fill="#363254"/>
<path d="M56.3668 110.038C57.0661 109.937 57.8893 110.777 58.1886 111.942C58.4903 113.093 58.1655 114.116 57.4508 114.226C56.7439 114.331 55.9222 113.485 55.6194 112.324C55.3256 111.174 55.6572 110.153 56.3668 110.038Z" fill="white"/>
<path d="M44.9401 105.286C40.015 109.055 38.4582 114.531 41.7857 117.634C41.4971 117.512 42.1253 118.31 41.8593 118.162C36.6201 115.28 35.7448 106.725 40.5681 101.691C44.7083 97.3657 57.1327 94.1584 57.0407 95.8263C56.528 97.7398 52.8907 100.169 48.3743 102.809C46.9205 103.628 45.8722 104.574 44.9401 105.286Z" fill="#363254"/>
<mask id="mask9_206_147" style="mask-type:luminance" maskUnits="userSpaceOnUse" x="74" y="35" width="81" height="117">
<path d="M74.897 57.386C74.897 57.386 97.3613 42.0668 111.55 36.8162C116.073 35.1417 148.702 26.5916 153.992 82.4751C156.884 113.073 151.676 134.207 126.38 138.035C111.242 140.329 113.586 151.52 113.586 151.52" fill="white"/>
</mask>
<g mask="url(#mask9_206_147)">
<path d="M74.897 57.386C74.897 57.386 97.3613 42.0668 111.55 36.8162C116.073 35.1417 148.702 26.5916 153.992 82.4751C156.884 113.073 151.676 134.207 126.38 138.035C111.242 140.329 113.586 151.52 113.586 151.52" fill="url(#paint9_linear_206_147)"/>
</g>
<path d="M110.525 34.2883C96.1707 39.6026 74.1827 54.5438 73.251 55.179C71.9793 56.0468 71.6815 57.7407 72.5911 58.9578C73.4976 60.1763 75.2694 60.4595 76.5421 59.5905C76.7637 59.4437 98.8812 44.4115 112.567 39.3428C112.995 39.1869 123.068 35.5704 132.736 41.3134C142.801 47.2953 149.173 61.6104 151.175 82.7207C154.361 116.459 146.813 132.197 125.938 135.361C120.021 136.254 115.713 138.507 113.13 142.062C109.739 146.716 110.761 151.838 110.809 152.055C111.116 153.512 112.591 154.451 114.117 154.171C115.646 153.893 116.649 152.474 116.369 151.01C116.362 150.984 115.798 147.83 117.822 145.102C119.498 142.843 122.526 141.365 126.824 140.711C157.859 136.014 159.157 106.99 156.819 82.2309C154.62 59.0319 147.519 43.7152 135.727 36.7097C123.888 29.6755 111.861 33.7947 110.525 34.2883Z" fill="#363254"/>
<mask id="mask10_206_147" style="mask-type:luminance" maskUnits="userSpaceOnUse" x="68" y="38" width="70" height="32">
<path d="M97.8771 53.3331C123.312 37.5566 137.432 45.6234 137.432 45.6234C126.373 35.5938 113.932 38.9179 111.181 39.9416C97.0406 45.1922 69.732 64.5968 69.732 64.5968C69.732 64.5968 66.0393 71.0932 73.3976 69.6838C73.3976 69.6838 89.4031 58.5928 97.8771 53.3331Z" fill="white"/>
</mask>
<g mask="url(#mask10_206_147)">
<path d="M97.8771 53.3331C123.312 37.5566 137.432 45.6234 137.432 45.6234C126.373 35.5938 113.932 38.9179 111.181 39.9416C97.0406 45.1922 69.732 64.5968 69.732 64.5968C69.732 64.5968 66.0393 71.0932 73.3976 69.6838C73.3976 69.6838 89.4031 58.5928 97.8771 53.3331Z" fill="url(#paint10_linear_206_147)"/>
</g>
<path d="M88.6986 127.781C88.4776 140.589 84.2023 152.253 77.5337 158.202C74.5081 160.905 71.1333 162.243 67.7649 162.08C66.7258 162.024 65.8404 162.789 65.7805 163.785C65.7309 164.786 66.5299 165.633 67.5725 165.685C71.9855 165.905 76.3191 164.232 80.1126 160.846C87.5036 154.247 92.2398 141.6 92.4752 127.834C92.4956 126.842 91.6658 126.017 90.6211 126.001C89.5765 125.987 88.7175 126.783 88.6986 127.781Z" fill="#363254"/>
<path d="M96.8804 118.634C95.4577 121.87 92.9714 123.932 90.0532 124.276C87.2084 124.609 84.3178 123.289 82.3186 120.741C81.696 119.945 80.5076 119.781 79.6741 120.382C78.8408 120.979 78.6704 122.112 79.2981 122.908C82.1195 126.508 86.3151 128.359 90.5169 127.865C94.8157 127.351 98.4009 124.497 100.365 120.032C100.767 119.111 100.312 118.06 99.354 117.669C98.3902 117.283 97.2877 117.716 96.8804 118.634Z" fill="#363254"/>
<defs>
<linearGradient id="paint0_linear_206_147" x1="139.127" y1="116.066" x2="252.51" y2="201.257" gradientUnits="userSpaceOnUse">
<stop stop-color="#8C9BD6"/>
<stop offset="1" stop-color="#505E9B"/>
</linearGradient>
<linearGradient id="paint1_linear_206_147" x1="87.5218" y1="182.687" x2="200.407" y2="267.505" gradientUnits="userSpaceOnUse">
<stop stop-color="#8C9BD6"/>
<stop offset="1" stop-color="#505E9B"/>
</linearGradient>
<linearGradient id="paint2_linear_206_147" x1="130.247" y1="128.411" x2="243.131" y2="213.227" gradientUnits="userSpaceOnUse">
<stop stop-color="#8C9BD6"/>
<stop offset="1" stop-color="#505E9B"/>
</linearGradient>
<linearGradient id="paint3_linear_206_147" x1="136.125" y1="118.529" x2="245.702" y2="200.861" gradientUnits="userSpaceOnUse">
<stop stop-color="#808FD0"/>
<stop offset="1" stop-color="#505E9B"/>
</linearGradient>
<linearGradient id="paint4_linear_206_147" x1="117.167" y1="145.499" x2="231.122" y2="231.121" gradientUnits="userSpaceOnUse">
<stop stop-color="#8C9BD6"/>
<stop offset="1" stop-color="#505E9B"/>
</linearGradient>
<linearGradient id="paint5_linear_206_147" x1="-39.8354" y1="117.343" x2="35.2188" y2="227.628" gradientUnits="userSpaceOnUse">
<stop stop-color="#FAFAFD"/>
<stop offset="1" stop-color="#8892D2"/>
</linearGradient>
<linearGradient id="paint6_linear_206_147" x1="85.124" y1="26.5773" x2="172.579" y2="155.084" gradientUnits="userSpaceOnUse">
<stop stop-color="#FAFAFD"/>
<stop offset="1" stop-color="#8892D2"/>
</linearGradient>
<linearGradient id="paint7_linear_206_147" x1="85.7211" y1="185.482" x2="198.548" y2="270.255" gradientUnits="userSpaceOnUse">
<stop stop-color="#8C9BD6"/>
<stop offset="1" stop-color="#505E9B"/>
</linearGradient>
<linearGradient id="paint8_linear_206_147" x1="137.069" y1="118.695" x2="250.287" y2="203.763" gradientUnits="userSpaceOnUse">
<stop stop-color="#8C9BD6"/>
<stop offset="1" stop-color="#505E9B"/>
</linearGradient>
<linearGradient id="paint9_linear_206_147" x1="143.867" y1="109.935" x2="256.912" y2="194.872" gradientUnits="userSpaceOnUse">
<stop stop-color="#8C9BD6"/>
<stop offset="1" stop-color="#505E9B"/>
</linearGradient>
<linearGradient id="paint10_linear_206_147" x1="82.9809" y1="27.9283" x2="172.361" y2="159.264" gradientUnits="userSpaceOnUse">
<stop stop-color="#FAFAFD"/>
<stop offset="1" stop-color="#8892D2"/>
</linearGradient>
</defs>
</svg>
