<svg width="300" height="300" viewBox="0 0 300 300" fill="none" xmlns="http://www.w3.org/2000/svg">
<g clip-path="url(#clip0_206_147)">
<mask id="mask0_206_147" style="mask-type:luminance" maskUnits="userSpaceOnUse" x="41" y="49" width="74" height="94">
<path d="M41.7456 75.2338C41.7456 75.2338 56.2864 59.2698 66.3572 52.6536C69.5658 50.5476 93.4303 38.0921 108.755 80.9601C117.139 104.431 117.279 121.915 98.2221 129.372C86.8105 133.838 90.8891 142.199 90.8891 142.199" fill="white"/>
</mask>
<g mask="url(#mask0_206_147)">
<path d="M41.7456 75.2338C41.7456 75.2338 56.2864 59.2698 66.3572 52.6536C69.5658 50.5476 93.4303 38.0921 108.755 80.9601C117.139 104.431 117.279 121.915 98.2221 129.372C86.8105 133.838 90.8891 142.199 90.8891 142.199" fill="url(#paint0_linear_206_147)"/>
</g>
<path d="M64.9641 50.709C54.7483 57.4201 40.4864 73.025 39.8847 73.6844C38.993 74.6657 39.0975 76.1575 40.1244 77.0112C41.1486 77.8637 42.7052 77.7655 43.5981 76.7831C43.7432 76.6238 58.0558 60.9636 67.7525 54.5958C68.0429 54.4016 75.1167 49.8621 83.732 52.5937C92.7919 55.4676 100.64 65.5415 106.423 81.7223C115.628 107.486 112.898 121.087 97.2916 127.189C92.7893 128.955 89.8251 131.507 88.4843 134.79C86.7147 139.119 88.5785 143.03 88.659 143.197C89.2283 144.37 90.6745 144.868 91.9028 144.331C93.1344 143.799 93.6809 142.406 93.1321 141.224C93.1228 141.201 92.0701 138.882 93.0961 136.452C93.9397 134.446 95.9779 132.794 99.1555 131.554C122.699 122.339 117.896 99.2673 111.082 80.1945C104.691 62.3153 96.0122 51.5266 85.2841 48.1208C74.5599 44.7184 65.9122 50.0891 64.9641 50.709Z" fill="#363254"/>
<mask id="mask1_206_147" style="mask-type:luminance" maskUnits="userSpaceOnUse" x="237" y="84" width="36" height="8">
<path d="M237.283 84.4777H267.822C270.385 84.4777 272.46 86.1637 272.46 88.2369C272.46 90.3113 270.385 91.9939 267.822 91.9939H243.852L237.283 84.4777Z" fill="white"/>
</mask>
<g mask="url(#mask1_206_147)">
<path d="M237.283 84.4777H267.822C270.385 84.4777 272.46 86.1637 272.46 88.2369C272.46 90.3113 270.385 91.9939 267.822 91.9939H243.852L237.283 84.4777Z" fill="url(#paint1_linear_206_147)"/>
</g>
<path d="M267.822 86.8332C269.104 86.8332 269.996 87.574 269.996 88.2369C269.996 88.8986 269.104 89.6394 267.822 89.6394C267.822 89.6394 247.093 89.6394 245.004 89.6394C244.513 89.0815 243.779 88.2335 242.554 86.8332C249.77 86.8332 267.822 86.8332 267.822 86.8332ZM232.016 82.1221L242.702 94.3517H267.822C271.74 94.3517 274.923 91.6088 274.923 88.2369C274.923 84.8639 271.74 82.1221 267.822 82.1221H232.016Z" fill="#363254"/>
<path d="M277.273 75.7397C281.472 73.7556 286.379 74.2412 288.245 76.8226C290.101 79.4108 288.206 83.1068 284.008 85.0988C279.817 87.0806 268.831 89.478 266.968 86.8864C265.103 84.3049 273.081 77.7226 277.273 75.7397Z" fill="#8B9DD7"/>
<path d="M278.361 77.8513C281.619 76.3133 285.195 76.7469 286.215 78.1618C286.498 78.5582 286.564 79.0133 286.416 79.5576C286.153 80.54 285.093 81.9561 282.913 82.9893C278.865 84.9022 271.675 86.0247 269.454 85.4827C270.273 83.6567 274.771 79.5519 278.361 77.8513ZM276.182 73.6291C272.671 75.2857 265.531 80.5671 264.401 84.7419L264.943 88.2233C268.316 92.9232 281.926 88.7123 285.099 87.2093C288.259 85.713 290.477 83.3552 291.185 80.7399C291.692 78.8755 291.368 77.0112 290.271 75.4878C287.699 71.9239 281.515 71.1086 276.182 73.6291Z" fill="#363254"/>
<path d="M284.732 90.9911C289.234 92.4817 291.741 95.9337 290.352 98.7049C288.95 101.479 284.174 102.509 279.676 101.014C275.185 99.527 266.151 93.9192 267.546 91.1514C268.946 88.3712 280.241 89.5005 284.732 90.9911Z" fill="#8B9DD7"/>
<path d="M283.925 93.2157H283.928C286.346 94.0208 287.67 95.359 288.099 96.3459C288.426 97.1002 288.205 97.5429 288.13 97.6874C287.39 99.1577 283.957 99.9414 280.484 98.7884C276.514 97.4751 271.177 93.7746 270.171 92.0717C272.034 91.4529 279.582 91.7736 283.925 93.2157ZM265.328 90.1295L265.33 93.5477C267.064 97.5429 275.066 101.982 278.872 103.243C284.596 105.146 290.616 103.602 292.569 99.7347C292.985 98.9002 293.192 98.0048 293.192 97.0968C293.192 96.2409 293.01 95.3759 292.643 94.529C291.54 91.9938 288.951 89.8968 285.538 88.7676C282.132 87.635 267.901 85.0174 265.328 90.1295Z" fill="#363254"/>
<path d="M285.39 82.4507C292.07 82.4078 297.511 84.795 297.536 87.7886C297.569 90.7811 292.185 93.2405 285.502 93.2835C278.833 93.3286 263.718 91.0103 263.687 88.0201C263.657 85.0231 278.72 82.5004 285.39 82.4507Z" fill="#8B9DD7"/>
<path d="M295.073 87.8112C295.073 87.9252 294.966 88.1477 294.667 88.439C293.46 89.6168 290.067 90.8974 285.487 90.9267C279.759 90.9651 270.699 89.4237 267.213 87.993C270.674 86.5092 279.69 84.8458 285.41 84.8074H285.407C291.733 84.7657 295.068 87.0196 295.073 87.8112ZM285.376 80.0928H285.372C280.52 80.1278 266.11 81.8228 262.413 85.4161L261.226 88.0438C261.294 94.9705 285.278 95.6413 285.52 95.6413C290.895 95.604 295.747 94.1123 298.181 91.7443C299.388 90.571 300.016 89.1979 300 87.7649C299.962 83.2694 293.811 80.0409 285.376 80.0928Z" fill="#363254"/>
<mask id="mask2_206_147" style="mask-type:luminance" maskUnits="userSpaceOnUse" x="64" y="158" width="67" height="83">
<path d="M130.941 159.234V219.741C130.941 234.66 116.015 240.007 97.6074 240.007C79.1966 240.007 64.2783 234.66 64.2783 219.741V158.52" fill="white"/>
</mask>
<g mask="url(#mask2_206_147)">
<path d="M130.941 159.234V219.741C130.941 234.66 116.015 240.007 97.6074 240.007C79.1966 240.007 64.2783 234.66 64.2783 219.741V158.52" fill="url(#paint2_linear_206_147)"/>
</g>
<path d="M61.8159 158.52V219.741C61.8159 234.332 74.5235 242.364 97.6074 242.364C120.691 242.364 133.403 234.332 133.403 219.741V159.234C133.403 157.932 132.3 156.876 130.941 156.876C129.58 156.876 128.478 157.932 128.478 159.234V219.741C128.478 234.545 111.693 237.651 97.6074 237.651C83.5269 237.651 66.7417 234.545 66.7417 219.741V158.52C66.7417 157.221 65.6379 156.165 64.2784 156.165C62.9192 156.165 61.8159 157.221 61.8159 158.52Z" fill="#363254"/>
<path d="M78.8863 219.669C78.8863 225.704 75.3588 230.611 71.0054 230.611C66.6516 230.611 63.123 225.704 63.123 219.669C63.123 213.622 66.6516 199.969 71.0054 199.969C75.3588 199.969 78.8863 213.622 78.8863 219.669Z" fill="#8B9DD7"/>
<path d="M63.9449 219.669C63.9449 213.093 67.6833 200.754 71.0054 200.754C74.3262 200.754 78.0658 213.093 78.0658 219.669C78.0658 225.272 74.9003 229.827 71.0054 229.827C67.1131 229.827 63.9449 225.272 63.9449 219.669ZM62.3013 219.669C62.3013 226.136 66.2046 231.399 71.0054 231.399C75.8044 231.399 79.706 226.136 79.706 219.669C79.706 213.762 76.2398 199.181 71.0054 199.181C65.7723 199.181 62.3013 213.762 62.3013 219.669Z" fill="#363254"/>
<path d="M65.2461 220.759C65.2461 214.945 69.5119 204.477 72.6258 204.477C72.9242 204.477 73.2165 204.625 73.4979 204.85C72.7196 203.007 71.828 201.787 70.8834 201.787C67.7672 201.787 65.2461 214.947 65.2461 220.759Z" fill="#A6BDE6"/>
<path d="M82.6034 225.482C82.6034 230.146 79.799 233.927 76.3368 233.927C72.8714 233.927 70.063 230.146 70.063 225.482C70.063 220.805 72.8714 210.271 76.3368 210.271C79.799 210.271 82.6034 220.805 82.6034 225.482Z" fill="#8B9DD7"/>
<path d="M70.8833 225.482C70.8833 220.593 73.8288 211.058 76.3366 211.058C78.8448 211.058 81.7814 220.593 81.7814 225.482C81.7814 229.704 79.3376 233.141 76.3366 233.141C73.328 233.141 70.8833 229.704 70.8833 225.482ZM69.2419 225.482C69.2419 230.57 72.4248 234.713 76.3366 234.713C80.2426 234.713 83.4242 230.57 83.4242 225.482C83.4242 221.5 80.9093 209.485 76.3366 209.485C71.7568 209.485 69.2419 221.5 69.2419 225.482Z" fill="#363254"/>
<path d="M72.6992 222.704C72.3839 219.381 75.3231 213.864 77.613 213.461C77.8274 213.433 78.0479 213.484 78.2672 213.575C77.596 212.62 76.8365 211.859 76.1859 212.157C73.9191 213.231 72.3839 219.392 72.6992 222.704Z" fill="#A6BDE6"/>
<mask id="mask3_206_147" style="mask-type:luminance" maskUnits="userSpaceOnUse" x="166" y="159" width="67" height="82">
<path d="M232.915 159.973V220.478C232.915 235.4 217.99 240.744 199.582 240.744C181.172 240.744 166.248 235.4 166.248 220.478V159.259" fill="white"/>
</mask>
<g mask="url(#mask3_206_147)">
<path d="M232.915 159.973V220.478C232.915 235.4 217.99 240.744 199.582 240.744C181.172 240.744 166.248 235.4 166.248 220.478V159.259" fill="url(#paint3_linear_206_147)"/>
</g>
<path d="M163.784 159.259V220.478C163.784 235.066 176.498 243.101 199.582 243.101C209.972 243.101 218.303 241.474 224.348 238.267C231.562 234.437 235.377 228.287 235.377 220.478V159.973C235.377 158.672 234.274 157.617 232.915 157.617C231.556 157.617 230.455 158.672 230.455 159.973V220.478C230.455 226.643 227.673 231.112 221.956 234.149C216.725 236.921 208.99 238.388 199.582 238.388C185.499 238.388 168.713 235.278 168.713 220.478V159.259C168.713 157.956 167.607 156.901 166.248 156.901C164.889 156.901 163.784 157.956 163.784 159.259Z" fill="#363254"/>
<path d="M180.859 220.405C180.859 226.441 177.333 231.355 172.981 231.355C168.62 231.355 165.096 226.441 165.096 220.405C165.096 214.361 168.62 200.708 172.981 200.708C177.333 200.708 180.859 214.361 180.859 220.405Z" fill="#7483CA"/>
<path d="M165.914 220.405C165.914 217.319 166.849 212.437 168.185 208.537C169.67 204.192 171.509 201.492 172.981 201.492C176.3 201.492 180.04 213.83 180.04 220.405C180.04 226.01 176.874 230.568 172.981 230.568C169.084 230.568 165.914 226.01 165.914 220.405ZM166.624 208.048C165.239 212.087 164.273 217.171 164.273 220.405C164.273 226.874 168.179 232.14 172.981 232.14C177.779 232.14 181.68 226.874 181.68 220.405C181.68 214.498 178.214 199.923 172.981 199.923C170.023 199.923 167.892 204.338 166.624 208.048Z" fill="#363254"/>
<path d="M167.224 221.504C167.224 215.687 171.486 205.212 174.6 205.212C174.899 205.212 175.191 205.365 175.473 205.586C174.692 203.746 173.803 202.525 172.859 202.525C169.741 202.525 167.224 215.687 167.224 221.504Z" fill="#839AD6"/>
<path d="M184.579 226.217C184.579 230.888 181.776 234.66 178.31 234.66C174.848 234.66 172.041 230.888 172.041 226.217C172.041 221.541 174.848 211.008 178.31 211.008C181.776 211.008 184.579 221.541 184.579 226.217Z" fill="#7483CA"/>
<path d="M172.863 226.217C172.863 221.329 175.802 211.796 178.31 211.796C180.815 211.796 183.757 221.329 183.757 226.217C183.757 230.44 181.313 233.879 178.31 233.879C175.305 233.879 172.863 230.44 172.863 226.217ZM171.221 226.217C171.221 231.311 174.401 235.448 178.31 235.448C182.22 235.448 185.4 231.311 185.4 226.217C185.4 222.236 182.884 210.224 178.31 210.224C173.734 210.224 171.221 222.236 171.221 226.217Z" fill="#363254"/>
<path d="M174.676 223.441C174.356 220.121 177.297 214.606 179.588 214.201C179.804 214.171 180.025 214.22 180.241 214.313C179.571 213.357 178.811 212.595 178.16 212.894C175.892 213.968 174.356 220.128 174.676 223.441Z" fill="#839AD6"/>
<mask id="mask4_206_147" style="mask-type:luminance" maskUnits="userSpaceOnUse" x="90" y="76" width="22" height="62">
<path d="M102.897 76.5968C115.88 97.5328 114.496 115.219 97.1987 124.49C86.8424 130.043 92.5438 137.368 92.5438 137.368" fill="white"/>
</mask>
<g mask="url(#mask4_206_147)">
<path d="M102.897 76.5968C115.88 97.5328 114.496 115.219 97.1987 124.49C86.8424 130.043 92.5438 137.368 92.5438 137.368" fill="url(#paint4_linear_206_147)"/>
</g>
<path d="M101.642 74.5686C100.47 75.2337 100.082 76.6803 100.779 77.7994C108.005 89.4474 110.592 99.9967 108.262 108.3C106.605 114.203 102.474 118.958 95.9969 122.435C91.9028 124.628 89.4608 127.394 88.7346 130.653C87.7465 135.082 90.4544 138.627 90.5704 138.775C91.3781 139.812 92.9022 140.022 93.9948 139.26C95.0849 138.497 95.3232 137.026 94.5329 135.975C94.521 135.955 93.02 133.917 93.5612 131.593C93.9948 129.734 95.6243 128.037 98.402 126.546C106.086 122.424 111.006 116.7 113.02 109.521C115.701 99.9617 112.937 88.1601 105.015 75.393C104.322 74.2728 102.808 73.9058 101.642 74.5686Z" fill="#080604"/>
<mask id="mask5_206_147" style="mask-type:luminance" maskUnits="userSpaceOnUse" x="2" y="61" width="257" height="183">
<path d="M178.734 61.7541C178.734 61.7541 157.18 61.5023 78.4274 64.0905C-0.320603 66.6776 2.58568 94.686 2.46338 134.909V231.658C2.46338 239.841 9.61234 243.142 18.4335 243.142C27.2533 243.142 34.4129 239.841 34.4129 231.658C34.4129 231.658 36.4466 204.013 38.2024 187.196C42.1303 126.104 116.483 197.242 170.533 193.922C219.649 190.902 258.328 174.087 258.328 134.125C258.328 94.153 232.98 61.7541 178.734 61.7541Z" fill="white"/>
</mask>
<g mask="url(#mask5_206_147)">
<path d="M178.734 61.7541C178.734 61.7541 157.18 61.5023 78.4274 64.0905C-0.320603 66.6776 2.58568 94.686 2.46338 134.909V231.658C2.46338 239.841 9.61234 243.142 18.4335 243.142C27.2533 243.142 34.4129 239.841 34.4129 231.658C34.4129 231.658 36.4466 204.013 38.2024 187.196C42.1303 126.104 116.483 197.242 170.533 193.922C219.649 190.902 258.328 174.087 258.328 134.125C258.328 94.153 232.98 61.7541 178.734 61.7541Z" fill="url(#paint5_linear_206_147)"/>
</g>
<path d="M4.92578 231.658V134.909C4.92578 134.918 4.932 130.646 4.932 130.646C4.94534 93.4404 4.95602 68.8603 78.5101 66.4438C156.242 63.8917 178.487 64.1062 178.704 64.1074H178.734C203.5 64.1074 223.681 71.1877 237.094 84.5804C249.375 96.8371 255.866 113.969 255.866 134.124C255.866 177.259 209.375 189.172 170.376 191.571C149.85 192.829 125.639 182.763 104.277 173.879C80.3326 163.924 59.6537 155.327 46.9222 162.79C40.1974 166.731 36.5423 174.667 35.7462 187.052C34.0157 203.618 31.9753 231.212 31.9563 231.493C31.9505 239.598 23.4815 240.786 18.4334 240.786C13.3902 240.786 4.92578 239.598 4.92578 231.658ZM78.3442 61.7371C0.0311264 64.3084 0.017789 92.1327 0.00622616 130.643L0 134.903V231.658C0 240.324 6.89192 245.503 18.4334 245.503C29.9852 245.503 36.8762 240.324 36.8762 231.658C36.8904 231.544 38.921 204.016 40.6541 187.429C41.3519 176.603 44.2426 169.89 49.4943 166.808C60.0446 160.628 80.5709 169.164 102.314 178.203C124.187 187.298 148.977 197.608 170.691 196.273C228.794 192.699 260.791 170.628 260.791 134.124C260.791 112.732 253.826 94.4736 240.651 81.318C226.287 66.9779 204.875 59.3962 178.734 59.3962H178.763C178.548 59.3937 156.248 59.1715 78.3442 61.7371Z" fill="#363254"/>
<mask id="mask6_206_147" style="mask-type:luminance" maskUnits="userSpaceOnUse" x="4" y="136" width="7" height="95">
<path d="M4.61183 137.562C4.69589 146.648 3.40752 226.008 8.46093 230.773C6.87326 227.259 10.3466 150.375 10.3021 145.543L10.2554 142.716C10.2554 141.37 10.2554 140.043 10.2554 138.722C8.30751 138.008 6.41698 137.131 4.59182 136.127L4.61183 137.562Z" fill="white"/>
</mask>
<g mask="url(#mask6_206_147)">
<path d="M4.61183 137.562C4.69589 146.648 3.40752 226.008 8.46093 230.773C6.87326 227.259 10.3466 150.375 10.3021 145.543L10.2554 142.716C10.2554 141.37 10.2554 140.043 10.2554 138.722C8.30751 138.008 6.41698 137.131 4.59182 136.127L4.61183 137.562Z" fill="url(#paint6_linear_206_147)"/>
</g>
<mask id="mask7_206_147" style="mask-type:luminance" maskUnits="userSpaceOnUse" x="4" y="64" width="243" height="76">
<path d="M178.704 64.4157C178.704 64.4157 157.618 64.1695 80.5652 66.7012C3.51555 69.233 4.69807 97.3916 4.69807 135.248L4.71408 136.648C6.49743 137.652 8.34571 138.53 10.2425 139.244C10.2603 103.417 11.7963 77.1297 86.1126 74.6883C163.163 72.1566 184.256 72.4028 184.256 72.4028C213.722 72.4028 234.008 82.27 246.638 97.6649C235.01 77.7429 212.993 64.4157 178.704 64.4157Z" fill="white"/>
</mask>
<g mask="url(#mask7_206_147)">
<path d="M178.704 64.4157C178.704 64.4157 157.618 64.1695 80.5652 66.7012C3.51555 69.233 4.69807 97.3916 4.69807 135.248L4.71408 136.648C6.49743 137.652 8.34571 138.53 10.2425 139.244C10.2603 103.417 11.7963 77.1297 86.1126 74.6883C163.163 72.1566 184.256 72.4028 184.256 72.4028C213.722 72.4028 234.008 82.27 246.638 97.6649C235.01 77.7429 212.993 64.4157 178.704 64.4157Z" fill="url(#paint7_linear_206_147)"/>
</g>
<mask id="mask8_206_147" style="mask-type:luminance" maskUnits="userSpaceOnUse" x="85" y="164" width="67" height="87">
<path d="M151.868 186.993V230.082C151.868 245.002 136.938 250.36 118.53 250.36C100.121 250.36 85.2 245.002 85.2 230.082V164.498" fill="white"/>
</mask>
<g mask="url(#mask8_206_147)">
<path d="M151.868 186.993V230.082C151.868 245.002 136.938 250.36 118.53 250.36C100.121 250.36 85.2 245.002 85.2 230.082V164.498" fill="url(#paint8_linear_206_147)"/>
</g>
<path d="M82.7373 164.498V230.082C82.7373 244.678 95.4519 252.714 118.53 252.714C141.615 252.714 154.331 244.678 154.331 230.082V186.993C154.331 185.692 153.226 184.636 151.868 184.636C150.509 184.636 149.405 185.692 149.405 186.993V230.082C149.405 244.894 132.617 248.002 118.53 248.002C104.45 248.002 87.663 244.894 87.663 230.082V164.498C87.663 163.197 86.5597 162.142 85.2001 162.142C83.8402 162.142 82.7373 163.197 82.7373 164.498Z" fill="#363254"/>
<path d="M106.168 234.262C106.168 239.874 101.461 244.426 95.6497 244.426C89.8385 244.426 85.1301 239.874 85.1301 234.262C85.1301 228.643 89.8385 215.959 95.6497 215.959C101.461 215.959 106.168 228.643 106.168 234.262Z" fill="#8B9DD7"/>
<path d="M85.9517 234.262C85.9517 228.791 90.6409 216.742 95.6498 216.742C100.659 216.742 105.348 228.791 105.348 234.262C105.348 239.436 101.001 243.641 95.6498 243.641C90.3055 243.641 85.9517 239.436 85.9517 234.262ZM84.3083 234.262C84.3083 240.298 89.3961 245.212 95.6498 245.212C101.904 245.212 106.991 240.298 106.991 234.262C106.991 228.569 102.205 215.169 95.6498 215.169C89.1003 215.169 84.3083 228.569 84.3083 234.262Z" fill="#363254"/>
<path d="M86.9265 234.934C86.9265 229.907 92.816 220.878 97.125 220.878C97.5354 220.878 97.9338 221.007 98.3319 221.203C97.2463 219.615 96.0211 218.559 94.7199 218.559C90.4091 218.559 86.9265 229.914 86.9265 234.934Z" fill="#A6BDE6"/>
<path d="M114.738 235.057C114.738 242.459 109.863 248.482 103.848 248.482C97.825 248.482 92.95 242.459 92.95 235.057C92.95 227.644 97.825 210.906 103.848 210.906C109.863 210.906 114.738 227.644 114.738 235.057Z" fill="#8B9DD7"/>
<path d="M93.7699 235.057C93.7699 227.756 98.6449 211.689 103.848 211.689C109.05 211.689 113.918 227.756 113.918 235.057C113.918 242.024 109.402 247.695 103.848 247.695C98.2932 247.695 93.7699 242.024 93.7699 235.057ZM92.1284 235.057C92.1284 242.891 97.3868 249.268 103.848 249.268C110.307 249.268 115.56 242.891 115.56 235.057C115.56 227.616 110.614 210.122 103.848 210.122C97.08 210.122 92.1284 227.616 92.1284 235.057Z" fill="#363254"/>
<path d="M95.887 236.399C95.887 229.261 101.782 216.433 106.086 216.433C106.496 216.433 106.901 216.619 107.292 216.892C106.214 214.627 104.982 213.134 103.681 213.134C99.37 213.134 95.887 229.272 95.887 236.399Z" fill="#A6BDE6"/>
<path d="M120.454 239.043C120.454 244.283 116.945 248.531 112.615 248.531C108.287 248.531 104.777 244.283 104.777 239.043C104.777 233.777 108.287 221.934 112.615 221.934C116.945 221.934 120.454 233.777 120.454 239.043Z" fill="#8B9DD7"/>
<path d="M105.598 239.043C105.598 233.367 109.32 222.719 112.615 222.719C115.918 222.719 119.633 233.367 119.633 239.043C119.633 243.845 116.488 247.744 112.615 247.744C108.747 247.744 105.598 243.845 105.598 239.043ZM103.956 239.043C103.956 244.708 107.844 249.316 112.615 249.316C117.395 249.316 121.274 244.708 121.274 239.043C121.274 233.883 117.824 221.149 112.615 221.149C107.408 221.149 103.956 233.883 103.956 239.043Z" fill="#363254"/>
<path d="M108.074 235.914C107.677 232.171 111.351 225.967 114.213 225.519C114.483 225.476 114.757 225.539 115.034 225.642C114.193 224.564 113.244 223.709 112.43 224.049C109.594 225.257 107.677 232.184 108.074 235.914Z" fill="#A6BDE6"/>
<mask id="mask9_206_147" style="mask-type:luminance" maskUnits="userSpaceOnUse" x="187" y="157" width="67" height="92">
<path d="M253.876 157.382V228.398C253.876 243.316 238.948 248.671 220.539 248.671C202.129 248.671 187.21 243.316 187.21 228.398V187.595" fill="white"/>
</mask>
<g mask="url(#mask9_206_147)">
<path d="M253.876 157.382V228.398C253.876 243.316 238.948 248.671 220.539 248.671C202.129 248.671 187.21 243.316 187.21 228.398V187.595" fill="url(#paint9_linear_206_147)"/>
</g>
<path d="M251.41 157.382V228.398C251.41 243.208 234.621 246.314 220.539 246.314C206.461 246.314 189.674 243.208 189.674 228.398V187.595C189.674 186.294 188.57 185.237 187.21 185.237C185.851 185.237 184.747 186.294 184.747 187.595V228.398C184.747 242.991 197.459 251.03 220.539 251.03C243.622 251.03 256.336 242.991 256.336 228.398V157.382C256.336 156.08 255.235 155.028 253.876 155.028C252.514 155.028 251.41 156.08 251.41 157.382Z" fill="#363254"/>
<path d="M208.179 232.576C208.179 238.185 203.47 242.736 197.659 242.736C191.848 242.736 187.14 238.185 187.14 232.576C187.14 226.957 191.848 214.271 197.659 214.271C203.47 214.271 208.179 226.957 208.179 232.576Z" fill="#8B9DD7"/>
<path d="M187.962 232.576C187.962 227.102 192.65 215.059 197.659 215.059C202.671 215.059 207.359 227.102 207.359 232.576C207.359 237.745 203.007 241.954 197.659 241.954C192.313 241.954 187.962 237.745 187.962 232.576ZM186.32 232.576C186.32 238.613 191.405 243.525 197.659 243.525C203.913 243.525 209 238.613 209 232.576C209 226.882 204.212 213.486 197.659 213.486C191.108 213.486 186.32 226.882 186.32 232.576Z" fill="#363254"/>
<path d="M188.936 233.244C188.936 228.22 194.824 219.192 199.134 219.192C199.545 219.192 199.943 219.32 200.341 219.514C199.257 217.926 198.032 216.87 196.73 216.87C192.42 216.87 188.936 228.227 188.936 233.244Z" fill="#A6BDE6"/>
<path d="M216.749 233.367C216.749 240.774 211.875 246.796 205.856 246.796C199.832 246.796 194.958 240.774 194.958 233.367C194.958 225.955 199.832 209.221 205.856 209.221C211.875 209.221 216.749 225.955 216.749 233.367Z" fill="#8B9DD7"/>
<path d="M195.779 233.367C195.779 226.067 200.651 210.005 205.856 210.005C211.06 210.005 215.927 226.067 215.927 233.367C215.927 240.337 211.409 246.01 205.856 246.01C200.298 246.01 195.779 240.337 195.779 233.367ZM194.138 233.367C194.138 241.204 199.394 247.579 205.856 247.579C212.315 247.579 217.569 241.204 217.569 233.367C217.569 225.93 212.625 208.432 205.856 208.432C199.084 208.432 194.138 225.93 194.138 233.367Z" fill="#363254"/>
<path d="M197.897 234.713C197.897 227.577 203.792 214.748 208.094 214.748C208.507 214.748 208.91 214.933 209.302 215.205C208.225 212.939 206.994 211.45 205.69 211.45C201.38 211.45 197.897 227.582 197.897 234.713Z" fill="#A6BDE6"/>
<path d="M222.462 237.355C222.462 242.597 218.955 246.845 214.626 246.845C210.298 246.845 206.788 242.597 206.788 237.355C206.788 232.091 210.298 220.245 214.626 220.245C218.955 220.245 222.462 232.091 222.462 237.355Z" fill="#8B9DD7"/>
<path d="M207.607 237.355C207.607 231.68 211.326 221.034 214.626 221.034C217.925 221.034 221.644 231.68 221.644 237.355C221.644 242.155 218.492 246.059 214.626 246.059C210.758 246.059 207.607 242.155 207.607 237.355ZM205.966 237.355C205.966 243.022 209.849 247.628 214.626 247.628C219.401 247.628 223.283 243.022 223.283 237.355C223.283 232.197 219.834 219.461 214.626 219.461C209.416 219.461 205.966 232.197 205.966 237.355Z" fill="#363254"/>
<path d="M210.085 234.228C209.688 230.484 213.361 224.283 216.223 223.833C216.492 223.791 216.768 223.85 217.044 223.956C216.202 222.876 215.254 222.026 214.44 222.36C211.603 223.568 209.688 230.497 210.085 234.228Z" fill="#A6BDE6"/>
<path d="M23.3468 95.4538C22.477 96.626 22.7838 98.2374 24.0375 99.0572C25.2864 99.8759 27.0079 99.5835 27.8768 98.4147C32.8297 91.7398 43.9697 89.9003 49.266 91.7963C50.3212 92.1757 51.655 92.0108 52.238 91.4202C52.8206 90.8375 52.4395 90.0538 51.3819 89.6755C44.1302 87.0761 29.9043 86.6052 23.3468 95.4538Z" fill="#363254"/>
<path d="M44.8132 124.795C40.2392 125.751 36.2065 123.213 35.8097 119.127C35.4143 115.035 38.805 110.946 43.3803 109.98C47.9592 109.02 51.9906 111.552 52.3905 115.647C52.7831 119.738 49.3935 123.826 44.8132 124.795ZM54.2716 115.101C53.8131 110.334 49.0506 107.4 43.6231 108.533C38.2024 109.671 34.1754 114.445 34.6308 119.206C35.0871 123.965 39.8514 126.906 45.2726 125.778C50.6996 124.637 54.7279 119.863 54.2716 115.101Z" fill="#363254"/>
<path d="M52.101 115.977C52.4484 119.573 49.4825 123.175 45.4772 124.016C41.4556 124.865 37.9293 122.627 37.5709 119.03C37.2263 115.433 40.1926 111.835 44.1996 110.993C48.2173 110.146 51.7532 112.377 52.101 115.977Z" fill="#FCFCFC"/>
<path d="M51.5138 116.013C50.4291 113.272 47.5487 111.683 45.1058 112.447C43.7965 112.849 42.8995 113.852 42.4814 115.107L45.896 116.783L42.7589 119.029C43.9214 121.614 46.6712 123.098 49.0442 122.36C51.4969 121.588 52.5976 118.752 51.5138 116.013Z" fill="#363254"/>
<path d="M48.9998 114.838C49.6076 114.751 50.3233 115.481 50.5834 116.494C50.8457 117.494 50.5634 118.384 49.9421 118.479C49.3276 118.57 48.6133 117.835 48.35 116.826C48.0947 115.826 48.3829 114.939 48.9998 114.838Z" fill="white"/>
<path d="M39.0665 110.708C34.7851 113.985 33.4318 118.744 36.3243 121.442C36.0735 121.336 36.6196 122.029 36.3883 121.901C31.8339 119.396 31.073 111.959 35.2659 107.583C38.865 103.823 49.6656 101.035 49.5856 102.484C49.14 104.148 45.978 106.259 42.0519 108.554C40.7881 109.267 39.8768 110.089 39.0665 110.708Z" fill="#363254"/>
<mask id="mask10_206_147" style="mask-type:luminance" maskUnits="userSpaceOnUse" x="65" y="49" width="70" height="102">
<path d="M65.1082 69.0681C65.1082 69.0681 84.6364 55.7511 96.9709 51.1867C100.902 49.7311 129.267 42.2985 133.866 90.8782C136.379 117.477 131.853 135.849 109.863 139.177C96.7028 141.171 98.7405 150.899 98.7405 150.899" fill="white"/>
</mask>
<g mask="url(#mask10_206_147)">
<path d="M65.1082 69.0681C65.1082 69.0681 84.6364 55.7511 96.9709 51.1867C100.902 49.7311 129.267 42.2985 133.866 90.8782C136.379 117.477 131.853 135.849 109.863 139.177C96.7028 141.171 98.7405 150.899 98.7405 150.899" fill="url(#paint10_linear_206_147)"/>
</g>
<path d="M96.0797 48.9892C83.6016 53.6089 64.4873 66.5974 63.6774 67.1496C62.5719 67.9039 62.3131 69.3764 63.1037 70.4345C63.8918 71.4937 65.432 71.7399 66.5384 70.9845C66.731 70.8568 85.9578 57.7893 97.8551 53.3831C98.2273 53.2476 106.983 50.1038 115.388 55.0961C124.137 60.2962 129.677 72.7404 131.417 91.0916C134.187 120.42 127.625 134.102 109.479 136.852C104.334 137.629 100.59 139.587 98.3443 142.677C95.3962 146.723 96.2848 151.176 96.3266 151.365C96.5939 152.63 97.8755 153.447 99.2026 153.204C100.531 152.962 101.404 151.728 101.16 150.455C101.154 150.433 100.664 147.691 102.423 145.32C103.88 143.356 106.512 142.071 110.248 141.503C137.228 137.42 138.356 112.189 136.324 90.6659C134.412 70.4989 128.239 57.1841 117.988 51.0941C107.696 44.9793 97.2409 48.5601 96.0797 48.9892Z" fill="#363254"/>
<mask id="mask11_206_147" style="mask-type:luminance" maskUnits="userSpaceOnUse" x="59" y="52" width="61" height="28">
<path d="M85.0848 65.5449C107.196 51.8304 119.47 58.8429 119.47 58.8429C109.856 50.1241 99.0417 53.0138 96.6499 53.9036C84.3577 58.468 60.6182 75.3365 60.6182 75.3365C60.6182 75.3365 57.4082 80.9839 63.8047 79.7586C63.8047 79.7586 77.7184 70.1172 85.0848 65.5449Z" fill="white"/>
</mask>
<g mask="url(#mask11_206_147)">
<path d="M85.0848 65.5449C107.196 51.8304 119.47 58.8429 119.47 58.8429C109.856 50.1241 99.0417 53.0138 96.6499 53.9036C84.3577 58.468 60.6182 75.3365 60.6182 75.3365C60.6182 75.3365 57.4082 80.9839 63.8047 79.7586C63.8047 79.7586 77.7184 70.1172 85.0848 65.5449Z" fill="url(#paint11_linear_206_147)"/>
</g>
<path d="M77.1061 130.262C76.9139 141.397 73.1974 151.536 67.4004 156.708C64.7702 159.058 61.8365 160.221 58.9084 160.079C58.0051 160.03 57.2353 160.695 57.1833 161.562C57.1402 162.431 57.8348 163.167 58.7411 163.212C62.5773 163.404 66.3446 161.95 69.6422 159.006C76.0672 153.27 80.1845 142.275 80.3891 130.309C80.4068 129.446 79.6855 128.729 78.7773 128.715C77.8692 128.703 77.1225 129.395 77.1061 130.262Z" fill="#363254"/>
<path d="M84.2185 122.312C82.9817 125.124 80.8204 126.917 78.2836 127.216C75.8106 127.505 73.2978 126.358 71.5599 124.143C71.0186 123.451 69.9856 123.309 69.261 123.83C68.5366 124.35 68.3885 125.335 68.9342 126.027C71.3868 129.156 75.034 130.765 78.6866 130.336C82.4236 129.889 85.5403 127.408 87.2476 123.527C87.5975 122.726 87.2014 121.812 86.3688 121.473C85.5309 121.137 84.5725 121.513 84.2185 122.312Z" fill="#363254"/>
</g>
<defs>
<linearGradient id="paint0_linear_206_147" x1="120.944" y1="120.079" x2="219.508" y2="194.136" gradientUnits="userSpaceOnUse">
<stop stop-color="#8C9BD6"/>
<stop offset="1" stop-color="#505E9B"/>
</linearGradient>
<linearGradient id="paint1_linear_206_147" x1="185.786" y1="35.7907" x2="285.169" y2="110.463" gradientUnits="userSpaceOnUse">
<stop stop-color="#808FD0"/>
<stop offset="1" stop-color="#505E9B"/>
</linearGradient>
<linearGradient id="paint2_linear_206_147" x1="76.0829" y1="177.993" x2="174.215" y2="251.725" gradientUnits="userSpaceOnUse">
<stop stop-color="#8C9BD6"/>
<stop offset="1" stop-color="#505E9B"/>
</linearGradient>
<linearGradient id="paint3_linear_206_147" x1="113.224" y1="130.81" x2="211.354" y2="204.542" gradientUnits="userSpaceOnUse">
<stop stop-color="#8C9BD6"/>
<stop offset="1" stop-color="#505E9B"/>
</linearGradient>
<linearGradient id="paint4_linear_206_147" x1="118.334" y1="122.22" x2="213.59" y2="193.791" gradientUnits="userSpaceOnUse">
<stop stop-color="#808FD0"/>
<stop offset="1" stop-color="#505E9B"/>
</linearGradient>
<linearGradient id="paint5_linear_206_147" x1="101.853" y1="145.665" x2="200.915" y2="220.097" gradientUnits="userSpaceOnUse">
<stop stop-color="#8C9BD6"/>
<stop offset="1" stop-color="#505E9B"/>
</linearGradient>
<linearGradient id="paint6_linear_206_147" x1="-34.6291" y1="121.189" x2="30.6158" y2="217.06" gradientUnits="userSpaceOnUse">
<stop stop-color="#FAFAFD"/>
<stop offset="1" stop-color="#8892D2"/>
</linearGradient>
<linearGradient id="paint7_linear_206_147" x1="73.9984" y1="42.2861" x2="150.024" y2="153.998" gradientUnits="userSpaceOnUse">
<stop stop-color="#FAFAFD"/>
<stop offset="1" stop-color="#8892D2"/>
</linearGradient>
<linearGradient id="paint8_linear_206_147" x1="74.5175" y1="180.422" x2="172.598" y2="254.116" gradientUnits="userSpaceOnUse">
<stop stop-color="#8C9BD6"/>
<stop offset="1" stop-color="#505E9B"/>
</linearGradient>
<linearGradient id="paint9_linear_206_147" x1="119.154" y1="122.365" x2="217.576" y2="196.315" gradientUnits="userSpaceOnUse">
<stop stop-color="#8C9BD6"/>
<stop offset="1" stop-color="#505E9B"/>
</linearGradient>
<linearGradient id="paint10_linear_206_147" x1="125.064" y1="114.749" x2="223.334" y2="188.586" gradientUnits="userSpaceOnUse">
<stop stop-color="#8C9BD6"/>
<stop offset="1" stop-color="#505E9B"/>
</linearGradient>
<linearGradient id="paint11_linear_206_147" x1="72.1356" y1="43.4605" x2="149.834" y2="157.631" gradientUnits="userSpaceOnUse">
<stop stop-color="#FAFAFD"/>
<stop offset="1" stop-color="#8892D2"/>
</linearGradient>
<clipPath id="clip0_206_147">
<rect width="300" height="300" fill="white"/>
</clipPath>
</defs>
</svg>
