<svg width="300" height="300" viewBox="0 0 300 300" fill="none" xmlns="http://www.w3.org/2000/svg">
<g clip-path="url(#clip0_3:7)">
<path d="M220.792 186.761L229.459 164.836H254.482L242.607 131.577L257.459 94.0005L300 207H268.628L261.358 186.761H220.792Z" fill="#3D3D3D"/>
<path d="M194.027 207L239.568 94.0006L209.376 94.0008L178.223 167.024L156.071 94.0009H132.864L109.078 167.024L92.3031 133.749L77.1228 180.537L92.5353 207H122.248L143.742 141.515L164.236 207H194.027Z" fill="#5A0FC8"/>
<path d="M28.6592 168.21H47.256C52.8893 168.21 57.9055 167.581 62.3047 166.323L67.1141 151.499L80.5555 110.071C79.5314 108.447 78.3621 106.911 77.0477 105.464C70.1464 97.8219 60.049 94.0009 46.7554 94.0009H0V207H28.6592V168.21ZM53.2749 119.998C55.9706 122.712 57.3183 126.344 57.3183 130.894C57.3183 135.48 56.1329 139.116 53.7622 141.804C51.1634 144.791 46.378 146.284 39.4064 146.284H28.6592V115.926H39.4853C45.9828 115.926 50.5794 117.283 53.2749 119.998Z" fill="#3D3D3D"/>
</g>
<defs>
<clipPath id="clip0_3:7">
<rect width="300" height="113" fill="white" transform="translate(0 94)"/>
</clipPath>
</defs>
</svg>
