<svg width="300" height="300" viewBox="0 0 300 300" fill="none" xmlns="http://www.w3.org/2000/svg">
<path d="M148.919 0C72.7604 0 77.5156 33.027 77.5156 33.027L77.6002 67.2439H150.277V77.5168H48.734C48.734 77.5168 0 71.9898 0 148.833C0 225.679 42.5363 222.954 42.5363 222.954H67.9217V187.295C67.9217 187.295 66.5532 144.758 109.779 144.758H181.862C181.862 144.758 222.36 145.413 222.36 105.618V39.8203C222.36 39.8203 228.511 0 148.919 0ZM108.845 23.0102C110.563 23.0087 112.263 23.3458 113.85 24.0023C115.437 24.6588 116.879 25.6218 118.094 26.8362C119.308 28.0506 120.271 29.4925 120.928 31.0795C121.584 32.6665 121.921 34.3673 121.92 36.0847C121.921 37.8021 121.584 39.503 120.928 41.09C120.271 42.6769 119.308 44.1189 118.094 45.3333C116.879 46.5477 115.437 47.5107 113.85 48.1672C112.263 48.8237 110.563 49.1608 108.845 49.1593C107.128 49.1608 105.427 48.8237 103.84 48.1672C102.253 47.5107 100.811 46.5477 99.5966 45.3333C98.3822 44.1189 97.4192 42.6769 96.7627 41.09C96.1062 39.503 95.7691 37.8021 95.7706 36.0847C95.7691 34.3673 96.1062 32.6665 96.7627 31.0795C97.4192 29.4925 98.3822 28.0506 99.5966 26.8362C100.811 25.6218 102.253 24.6588 103.84 24.0023C105.427 23.3458 107.128 23.0087 108.845 23.0102V23.0102Z" fill="url(#paint0_linear_6_94)"/>
<path d="M151.082 299.639C227.241 299.639 222.486 266.479 222.486 266.479L222.401 232.126H149.723V221.812H251.266C251.266 221.812 300 227.361 300 150.206C300 73.0529 257.464 75.7892 257.464 75.7892H232.078V111.591C232.078 111.591 233.447 154.298 190.221 154.298H118.138C118.138 154.298 77.6402 153.641 77.6402 193.596V259.66C77.6402 259.66 71.4906 299.639 151.081 299.639H151.082ZM191.156 276.539C189.439 276.54 187.738 276.202 186.151 275.542C184.564 274.883 183.122 273.916 181.907 272.697C180.693 271.478 179.73 270.03 179.074 268.437C178.417 266.843 178.08 265.136 178.081 263.411C178.08 261.687 178.417 259.979 179.073 258.386C179.73 256.792 180.693 255.344 181.907 254.125C183.121 252.906 184.563 251.939 186.15 251.279C187.738 250.62 189.438 250.282 191.156 250.283C192.873 250.282 194.574 250.62 196.161 251.279C197.748 251.938 199.19 252.905 200.405 254.125C201.619 255.344 202.582 256.792 203.238 258.385C203.895 259.978 204.232 261.686 204.231 263.41C204.232 265.135 203.895 266.842 203.238 268.436C202.582 270.029 201.619 271.477 200.405 272.696C199.19 273.915 197.748 274.882 196.161 275.541C194.574 276.2 192.873 276.539 191.156 276.537V276.539Z" fill="url(#paint1_linear_6_94)"/>
<defs>
<linearGradient id="paint0_linear_6_94" x1="28.8299" y1="26.8429" x2="177.501" y2="174.031" gradientUnits="userSpaceOnUse">
<stop stop-color="#387EB8"/>
<stop offset="1" stop-color="#366994"/>
</linearGradient>
<linearGradient id="paint1_linear_6_94" x1="120.084" y1="121.846" x2="280.343" y2="272.738" gradientUnits="userSpaceOnUse">
<stop stop-color="#FFE052"/>
<stop offset="1" stop-color="#FFC331"/>
</linearGradient>
</defs>
</svg>
