<svg width="300" height="300" viewBox="0 0 300 300" fill="none" xmlns="http://www.w3.org/2000/svg">
<path d="M279.727 119.898H185.532C183.261 119.897 181.084 118.995 179.478 117.39C177.873 115.784 176.97 113.607 176.969 111.337V13.1668C176.969 5.89705 171.074 0 163.808 0H130.182C122.912 0 117.02 5.89705 117.02 13.1668V110.742C117.02 115.804 112.927 119.919 107.865 119.941L76.996 120.089C71.8905 120.116 67.7425 115.974 67.7525 110.873L67.944 13.1889C67.9606 5.90812 62.0635 0 54.7827 0H21.1849C13.913 0 8.02258 5.89705 8.02258 13.1668V288.055C8.02258 294.514 13.2543 299.745 19.7071 299.745H279.727C286.186 299.745 291.417 294.514 291.417 288.055V131.588C291.417 125.13 286.186 119.898 279.727 119.898ZM235.555 223.108C235.555 231.571 228.694 238.434 220.231 238.434H193.657C185.193 238.434 178.332 231.571 178.332 223.108V196.534C178.332 188.07 185.193 181.209 193.657 181.209H220.231C228.694 181.209 235.555 188.07 235.555 196.534V223.108Z" fill="#FF6600"/>
</svg>
