<svg width="300" height="300" viewBox="0 0 300 300" fill="none" xmlns="http://www.w3.org/2000/svg">
<path d="M300 149.612C300 129.738 275.112 110.904 236.955 99.2246C245.76 60.3335 241.847 29.3918 224.603 19.4855C220.628 17.1618 215.98 16.0611 210.905 16.0611V29.6975C213.718 29.6975 215.98 30.2479 217.876 31.2874C226.192 36.0571 229.8 54.2185 226.987 77.5777C226.315 83.3257 225.214 89.3795 223.869 95.5557C211.883 92.6205 198.797 90.3579 185.039 88.8903C176.784 77.5777 168.223 67.3045 159.6 58.3155C179.535 39.7872 198.247 29.6364 210.966 29.6364V16C194.15 16 172.136 27.9853 149.878 48.7762C127.619 28.1076 105.605 16.2446 88.7892 16.2446V29.881C101.447 29.881 120.22 39.9707 140.155 58.3767C131.594 67.3657 123.033 77.5777 114.9 88.8903C101.08 90.3579 87.9943 92.6205 76.009 95.6168C74.6025 89.5018 73.563 83.5703 72.8292 77.8834C69.9552 54.5243 73.5018 36.3628 81.757 31.532C83.5915 30.4313 85.9764 29.9421 88.7892 29.9421V16.3057C83.6527 16.3057 79.0053 17.4064 74.9694 19.7301C57.7864 29.6364 53.934 60.5169 62.8007 99.2858C24.7656 111.027 0 129.799 0 149.612C0 169.486 24.8879 188.32 63.0452 199.999C54.2397 238.89 58.1533 269.832 75.3975 279.738C79.3722 282.062 84.0196 283.163 89.1561 283.163C105.972 283.163 127.986 271.177 150.245 250.386C172.503 271.055 194.517 282.918 211.333 282.918C216.47 282.918 221.117 281.817 225.153 279.494C242.336 269.587 246.188 238.707 237.322 199.938C275.234 188.258 300 169.424 300 149.612V149.612ZM220.383 108.825C218.121 116.713 215.308 124.846 212.128 132.979C209.621 128.087 206.991 123.195 204.117 118.303C201.305 113.411 198.308 108.642 195.312 103.994C203.995 105.278 212.373 106.868 220.383 108.825ZM192.377 173.949C187.607 182.205 182.715 190.032 177.64 197.309C168.528 198.104 159.295 198.532 150 198.532C140.766 198.532 131.533 198.104 122.483 197.37C117.407 190.093 112.454 182.327 107.684 174.133C103.037 166.122 98.8178 157.989 94.9654 149.795C98.7566 141.601 103.037 133.407 107.623 125.397C112.393 117.141 117.285 109.314 122.36 102.038C131.472 101.243 140.705 100.815 150 100.815C159.234 100.815 168.467 101.243 177.517 101.976C182.593 109.253 187.546 117.019 192.316 125.213C196.963 133.224 201.182 141.357 205.035 149.551C201.182 157.745 196.963 165.939 192.377 173.949ZM212.128 166C215.43 174.194 218.243 182.388 220.567 190.338C212.556 192.294 204.117 193.945 195.373 195.23C198.369 190.521 201.366 185.69 204.179 180.737C206.991 175.845 209.621 170.892 212.128 166ZM150.122 231.247C144.435 225.376 138.748 218.833 133.123 211.679C138.626 211.923 144.252 212.107 149.939 212.107C155.687 212.107 161.374 211.985 166.938 211.679C161.435 218.833 155.748 225.376 150.122 231.247ZM104.627 195.23C95.9437 193.945 87.5662 192.355 79.5556 190.399C81.8182 182.51 84.6311 174.378 87.8108 166.245C90.318 171.137 92.9474 176.029 95.8214 180.921C98.6955 185.812 101.631 190.582 104.627 195.23ZM149.817 67.9772C155.503 73.8475 161.19 80.3905 166.816 87.545C161.313 87.3005 155.687 87.117 150 87.117C144.252 87.117 138.565 87.2393 133 87.545C138.504 80.3905 144.191 73.8475 149.817 67.9772ZM104.566 103.994C101.57 108.703 98.5732 113.534 95.7603 118.487C92.9474 123.379 90.318 128.271 87.8108 133.163C84.5088 124.969 81.6959 116.775 79.3722 108.825C87.3828 106.929 95.8215 105.278 104.566 103.994ZM49.2254 180.554C27.5785 171.32 13.5752 159.212 13.5752 149.612C13.5752 140.011 27.5785 127.843 49.2254 118.67C54.4843 116.408 60.2324 114.39 66.1639 112.494C69.6494 124.479 74.2356 136.954 79.9225 149.734C74.2968 162.453 69.7717 174.867 66.3473 186.791C60.2935 184.895 54.5455 182.816 49.2254 180.554ZM82.1239 267.936C73.8076 263.167 70.1998 245.005 73.0126 221.646C73.6853 215.898 74.786 209.844 76.1313 203.668C88.1166 206.603 101.203 208.866 114.961 210.333C123.216 221.646 131.777 231.919 140.4 240.908C120.465 259.437 101.753 269.587 89.0338 269.587C86.2821 269.526 83.9584 268.976 82.1239 267.936V267.936ZM227.171 221.34C230.045 244.7 226.498 262.861 218.243 267.692C216.408 268.793 214.024 269.282 211.211 269.282C198.553 269.282 179.78 259.192 159.845 240.786C168.406 231.797 176.967 221.585 185.1 210.272C198.92 208.805 212.006 206.542 223.991 203.546C225.397 209.722 226.498 215.653 227.171 221.34V221.34ZM250.713 180.554C245.455 182.816 239.706 184.834 233.775 186.73C230.289 174.744 225.703 162.27 220.016 149.49C225.642 136.77 230.167 124.357 233.592 112.433C239.645 114.329 245.393 116.408 250.775 118.67C272.422 127.904 286.425 140.011 286.425 149.612C286.364 159.212 272.36 171.381 250.713 180.554V180.554Z" fill="#61DAFB"/>
<path d="M149.939 177.557C165.373 177.557 177.884 165.046 177.884 149.612C177.884 134.178 165.373 121.667 149.939 121.667C134.505 121.667 121.993 134.178 121.993 149.612C121.993 165.046 134.505 177.557 149.939 177.557Z" fill="#61DAFB"/>
</svg>
