<svg width="300" height="300" viewBox="0 0 300 300" fill="none" xmlns="http://www.w3.org/2000/svg">
<g clip-path="url(#clip0_6_102)">
<path d="M207.868 206.906C218.939 205.76 227.338 196.216 226.956 184.762C226.575 173.309 217.03 164.146 205.577 164.146H204.814C192.978 164.529 183.817 174.454 184.199 186.289C184.581 192.016 186.871 196.979 190.307 200.415C177.327 225.995 157.475 244.701 127.698 260.354C107.464 271.044 86.468 274.862 65.4715 272.19C48.2918 269.899 34.9301 262.264 26.5301 249.664C14.3144 230.957 13.1695 210.723 23.4773 190.489C30.7312 175.981 42.1828 165.291 49.4367 159.946C47.9098 154.984 45.6187 146.585 44.4738 140.477C-10.882 180.563 -5.15509 234.775 11.6426 260.354C24.2402 279.444 49.8187 291.279 78.0691 291.279C85.7039 291.279 93.3387 290.514 100.975 288.607C149.841 279.062 186.872 250.046 207.868 206.906ZM275.059 159.566C246.045 125.587 203.287 106.88 154.421 106.88H148.314C144.878 100.009 137.624 95.4266 129.607 95.4266H128.843C117.009 95.8086 107.848 105.734 108.229 117.57C108.611 129.023 118.154 138.186 129.607 138.186H130.37C138.769 137.804 146.023 132.459 149.077 125.205H155.948C184.963 125.205 212.449 133.604 237.265 150.021C256.352 162.62 270.096 179.036 277.731 198.888C284.221 214.923 283.839 230.575 276.967 243.938C266.278 264.172 248.336 275.244 224.666 275.244C209.395 275.244 194.889 270.662 187.253 267.226C183.054 271.044 175.418 277.152 170.073 280.971C186.49 288.605 203.287 292.805 219.321 292.805C255.97 292.805 283.076 272.571 293.384 252.337C304.454 230.193 303.69 192.016 275.059 159.566ZM81.123 213.395C81.5051 224.848 91.0488 234.01 102.502 234.01H103.266C115.1 233.629 124.262 223.702 123.88 211.868C123.499 200.414 113.954 191.252 102.502 191.252H101.739C100.975 191.252 99.8285 191.252 99.0668 191.633C83.414 165.672 76.9242 137.422 79.2152 106.879C80.741 83.9727 88.3769 64.1199 101.739 47.7031C112.809 33.5773 134.188 26.7055 148.696 26.3246C189.162 25.5605 206.34 75.9547 207.486 96.1895C212.449 97.3344 220.848 100.007 226.575 101.916C221.993 40.0695 183.817 8 147.169 8C112.809 8 81.123 32.8156 68.5242 69.466C50.9637 118.333 62.4164 165.291 83.7949 202.324C81.8871 204.996 80.741 209.196 81.123 213.396V213.395Z" fill="#764ABC"/>
</g>
<defs>
<clipPath id="clip0_6_102">
<rect width="300" height="300" fill="white"/>
</clipPath>
</defs>
</svg>
