<svg width="300" height="300" viewBox="0 0 300 300" fill="none" xmlns="http://www.w3.org/2000/svg">
<path d="M276.567 31.2763C206.164 -11.7028 95.2274 -9.12826 24.014 31.2763V143.967C23.1615 204.661 62.2416 261.181 115.107 287.298C126.75 293.027 137.525 297.004 150.303 300C163.073 297.004 173.846 293.027 185.483 287.298C238.33 261.2 277.427 204.661 276.555 143.967L276.567 31.2763Z" fill="white"/>
<path d="M235.697 248.71L182.544 1.55907C180.312 1.33273 178.067 1.19867 175.834 1.02595L220.486 263.782C225.874 259.098 230.947 254.056 235.697 248.71" fill="#971A1F"/>
<path d="M276.314 152.971L214.947 6.93191C212.595 6.39131 210.222 5.93613 207.85 5.46848L272.894 177.896C274.76 169.746 275.89 161.411 276.314 152.971Z" fill="#971A1F"/>
<path d="M185.483 287.286C189.498 285.301 193.4 283.084 197.248 280.763L166.775 0.341243C164.379 0.229008 161.97 0.243974 159.553 0.182868L178.033 290.732C180.503 289.641 182.962 288.528 185.483 287.286Z" fill="#971A1F"/>
<path d="M263.132 206.586L198.463 3.70024C196.208 3.32987 193.925 3.04492 191.661 2.73066L252.952 225.639C256.763 219.521 260.173 213.157 263.132 206.586" fill="#971A1F"/>
<path d="M276.574 31.2621C261.045 21.7875 243.484 14.6506 224.88 9.524L276.555 117.782L276.574 31.2621Z" fill="#971A1F"/>
<path d="M102.065 134.257L109.123 155.927L90.6901 142.53L72.296 155.927L79.3448 134.257L61.0117 120.909H83.6706L90.6901 99.3686L97.7534 120.909H120.381L102.065 134.257ZM24.0141 31.2651V143.955C23.1494 204.652 62.2392 261.184 115.102 287.289C126.74 293.025 137.525 296.995 150.296 299.991V0.00327197C104.961 0.371153 59.5381 11.1027 24.0141 31.2651Z" fill="#971A1F"/>
</svg>
