<svg width="300" height="300" viewBox="0 0 300 300" fill="none" xmlns="http://www.w3.org/2000/svg">
<path d="M227.162 13.3086H38.9375C32.8593 13.3256 27.0349 15.7476 22.737 20.0456C18.439 24.3435 16.017 30.1679 16 36.2461V243.83C16.017 249.908 18.439 255.732 22.737 260.03C27.0349 264.328 32.8593 266.75 38.9375 266.767H162.913C161.499 205.079 182.572 85.3671 227.162 13.3086Z" fill="#0F80CC"/>
<path d="M220.327 20.0044H38.9375C34.6317 20.0101 30.5039 21.723 27.4592 24.7677C24.4146 27.8124 22.7016 31.9402 22.6959 36.246V228.681C69.2312 211.129 118.354 201.413 168.067 199.926C181.215 138.793 198.679 78.6685 220.327 20.0044Z" fill="url(#paint0_linear_2209_12)"/>
<path d="M271.066 6.51619C258.209 -4.97933 242.568 -0.361836 227.14 13.3085C224.858 15.3441 222.577 17.5939 220.305 20.0044C191.284 54.3278 171.216 95.3057 161.896 139.277C164.773 145.554 167.047 152.09 168.688 158.797C169.074 160.297 169.427 161.711 169.759 162.911C170.424 165.75 170.831 167.593 170.831 167.593C170.831 167.593 170.595 166.703 169.62 163.886L168.988 162.065C168.881 161.775 168.742 161.432 168.581 161.057C166.867 157.061 162.153 148.63 160.01 144.987C158.221 150.269 156.635 155.208 155.318 159.675C159.766 169.243 163.032 179.316 165.045 189.673C165.045 189.673 164.724 188.441 163.213 184.156C160.311 177.897 157.093 171.79 153.571 165.857C151.294 171.734 150.329 178.038 150.743 184.327C153.103 189.031 154.876 194.007 156.025 199.144C159.603 212.889 162.088 229.634 162.088 229.634C162.088 229.634 162.174 230.706 162.303 232.452C161.832 243.901 162.065 255.368 162.999 266.788C163.53 278.096 165.636 289.274 169.256 300L171.184 298.929C166.695 282.808 164.964 266.045 166.063 249.347C168.08 213.947 175.069 179.007 186.826 145.555C208.36 88.6882 238.25 43.049 265.57 21.2793C240.65 43.7775 206.924 116.629 196.821 143.605C186.183 171.381 178.1 200.069 172.673 229.313C179.132 212.992 191.778 199.884 207.856 192.844C207.856 192.844 221.066 176.549 236.504 153.28C226.53 155.36 216.677 157.981 206.988 161.132C199.489 164.282 197.464 165.354 197.464 165.354C211.78 156.732 226.904 149.531 242.621 143.852C271.291 98.6946 302.531 34.5747 271.076 6.46262" fill="#003B57"/>
<defs>
<linearGradient id="paint0_linear_2209_12" x1="121.282" y1="24.7124" x2="121.282" y2="217.539" gradientUnits="userSpaceOnUse">
<stop stop-color="#97D9F6"/>
<stop offset="0.92" stop-color="#0F80CC"/>
<stop offset="1" stop-color="#0F80CC"/>
</linearGradient>
</defs>
</svg>
