<svg width="300" height="300" viewBox="0 0 300 300" fill="none" xmlns="http://www.w3.org/2000/svg">
<path d="M0 150V300H300V0H0V150ZM241.752 138C248.937 139.667 255.468 143.425 260.52 148.8C263.301 151.695 265.719 154.919 267.72 158.4C267.72 158.784 254.76 167.544 246.864 172.44C246.576 172.632 245.424 171.384 244.152 169.488C242.711 167.001 240.663 164.919 238.199 163.438C235.735 161.956 232.937 161.123 230.064 161.016C220.968 160.392 215.112 165.168 215.16 173.016C215.085 174.97 215.532 176.909 216.456 178.632C218.448 182.784 222.168 185.256 233.832 190.296C255.312 199.536 264.504 205.632 270.216 214.296C276.6 223.896 278.016 239.4 273.696 250.872C268.896 263.352 257.136 271.824 240.504 274.632C232.908 275.502 225.232 275.421 217.656 274.392C206.093 272.516 195.427 267.011 187.2 258.672C184.44 255.624 179.064 247.68 179.4 247.104C180.276 246.454 181.199 245.868 182.16 245.352L193.2 239.016L201.816 234.024L203.616 236.688C206.654 241.033 210.52 244.736 214.992 247.584C224.592 252.624 237.696 251.928 244.176 246.096C246.352 243.959 247.709 241.127 248.012 238.092C248.314 235.057 247.543 232.013 245.832 229.488C243.432 226.152 238.632 223.344 225.216 217.488C209.736 210.816 203.064 206.688 196.968 200.112C193.162 195.773 190.353 190.653 188.736 185.112C187.53 178.782 187.352 172.299 188.208 165.912C191.4 150.96 202.608 140.52 218.976 137.424C226.556 136.486 234.235 136.696 241.752 138.048V138ZM171.336 150.576V162.864H132.384V273.816H104.76V162.84H65.712V150.84C65.6072 146.709 65.7193 142.575 66.048 138.456C66.192 138.264 90.048 138.168 118.848 138.216H171.192L171.336 150.576Z" fill="#007ACC"/>
</svg>
