<svg width="300" height="300" viewBox="0 0 300 300" fill="none" xmlns="http://www.w3.org/2000/svg">
<g clip-path="url(#clip0_6_110)">
<path d="M86.562 17C78.4597 17.0176 70.5284 21.6172 66.4503 28.6332L3.01201 138.832C-1.004 145.866 -1.004 155.062 3.01201 162.097L66.4503 272.296C70.5284 279.312 78.4597 283.913 86.562 283.93H213.439C221.541 283.912 229.472 279.312 233.55 272.296L296.989 162.097C301.005 155.062 301.003 145.866 296.989 138.832L233.55 28.6332C229.472 21.616 221.541 17.0164 213.439 17H86.562ZM87.714 81.4684C87.8886 81.4508 88.0714 81.4508 88.246 81.4684H110.13C110.616 81.4841 111.09 81.6226 111.509 81.871C111.927 82.1193 112.276 82.4694 112.523 82.8887L149.646 149.043C149.834 149.371 149.953 149.735 149.998 150.11C150.045 149.735 150.164 149.371 150.352 149.043L187.387 82.8887C187.642 82.4574 188.005 82.0998 188.439 81.8509C188.874 81.6019 189.366 81.4701 189.867 81.4684H211.752C213.689 81.4848 215.141 83.9258 214.233 85.6414L177.995 150.465L214.233 215.199C215.227 216.924 213.741 219.478 211.752 219.461H189.867C189.358 219.451 188.86 219.305 188.424 219.04C187.988 218.775 187.631 218.4 187.387 217.952L150.352 151.796C150.164 151.469 150.045 151.105 149.999 150.731C149.954 151.106 149.834 151.469 149.646 151.797L112.521 217.952C112.285 218.387 111.942 218.754 111.523 219.019C111.105 219.283 110.625 219.435 110.131 219.461H88.2448C86.2562 219.479 84.7702 216.924 85.764 215.199L122.002 150.465L85.764 85.6414C84.8956 84.0758 85.955 81.8023 87.7128 81.4684H87.714Z" fill="#3498DB"/>
</g>
<defs>
<clipPath id="clip0_6_110">
<rect width="300" height="300" fill="white"/>
</clipPath>
</defs>
</svg>
